<?xml version="1.0" encoding="UTF-8" standalone="no"?>
<svg
   xmlns:dc="http://purl.org/dc/elements/1.1/"
   xmlns:cc="http://creativecommons.org/ns#"
   xmlns:rdf="http://www.w3.org/1999/02/22-rdf-syntax-ns#"
   xmlns:svg="http://www.w3.org/2000/svg"
   xmlns="http://www.w3.org/2000/svg"
   xmlns:sodipodi="http://sodipodi.sourceforge.net/DTD/sodipodi-0.dtd"
   xmlns:inkscape="http://www.inkscape.org/namespaces/inkscape"
   viewBox="0 0 480 480"
   version="1.1"
   id="svg4"
   sodipodi:docname="Значок Партнерам.svg"
   width="480"
   height="480"
   inkscape:version="1.0.2-2 (e86c870879, 2021-01-15)">
  <metadata
     id="metadata10">
    <rdf:RDF>
      <cc:Work
         rdf:about="">
        <dc:format>image/svg+xml</dc:format>
        <dc:type
           rdf:resource="http://purl.org/dc/dcmitype/StillImage" />
        <dc:title></dc:title>
      </cc:Work>
    </rdf:RDF>
  </metadata>
  <defs
     id="defs8" />
  <sodipodi:namedview
     pagecolor="#ffffff"
     bordercolor="#666666"
     borderopacity="1"
     objecttolerance="10"
     gridtolerance="10"
     guidetolerance="10"
     inkscape:pageopacity="0"
     inkscape:pageshadow="2"
     inkscape:window-width="1600"
     inkscape:window-height="838"
     id="namedview6"
     showgrid="false"
     inkscape:zoom="0.43852551"
     inkscape:cx="320"
     inkscape:cy="529.64429"
     inkscape:window-x="-8"
     inkscape:window-y="-8"
     inkscape:window-maximized="1"
     inkscape:current-layer="svg4" />
  <!-- Font Awesome Free 5.15.2 by @fontawesome - https://fontawesome.com License - https://fontawesome.com/license/free (Icons: CC BY 4.0, Fonts: SIL OFL 1.1, Code: MIT License) -->
  <path
     d="M 344.81455,172.59666 319.7685,147.55061 a 29.598536,29.598534 0 0 0 -20.83663,-8.57669 H 179.59482 c -7.78743,0 -15.31176,3.10444 -20.83663,8.57669 l -25.04605,25.04605 H 71.623201 v 134.54357 h 33.675359 c 9.26073,0 16.73244,-7.47173 16.78506,-16.67983 h 4.78822 l 44.51461,40.19996 c 16.25888,13.20705 38.83189,13.52276 55.56434,1.99947 6.57722,5.68272 13.68061,8.36623 21.6259,8.36623 9.57642,0 18.57406,-3.89372 25.67745,-12.62826 11.62853,4.57774 25.36176,1.36806 33.67536,-8.83978 l 13.78585,-16.99553 c 2.9466,-3.63063 4.78822,-7.78743 5.73534,-12.10209 h 30.46568 c 0.0526,9.2081 7.57695,16.67983 16.78505,16.67983 h 33.67537 V 172.59666 Z M 96.879712,290.30255 c -4.630354,0 -8.41883,-3.78848 -8.41883,-8.41884 0,-4.63037 3.788476,-8.41884 8.41883,-8.41884 4.630368,0 8.418848,3.78847 8.418848,8.41884 0,4.68298 -3.78848,8.41884 -8.418848,8.41884 z m 205.209218,-3.63062 -13.73323,16.9429 c -1.4733,1.78901 -4.10419,2.10472 -5.94581,0.63143 l -12.57563,-10.20785 -15.78533,19.20547 c -3.15707,3.8411 -7.89266,2.52566 -9.4712,1.26283 l -19.36333,-16.57459 -8.20836,10.10261 c -7.31387,8.99764 -20.62616,10.36569 -29.09762,3.47277 l -51.19706,-46.30362 h -14.57512 v -67.40332 h 22.04684 l 32.46515,-32.41254 c 1.05235,-0.42094 1.94686,-0.78926 2.99921,-1.2102 h 29.83426 l -20.36307,18.6793 c -15.46962,14.15416 -16.36412,38.04262 -2.31519,53.30177 7.78744,8.52407 32.20207,21.67851 53.40703,2.31518 l 4.31465,-3.94633 56.9324,46.19838 c 1.78901,1.47329 2.05209,4.1568 0.63141,5.94581 z m 55.77482,-21.46805 h -36.41148 c -1.21021,-1.47329 -2.57827,-2.84135 -4.05157,-4.05156 l -54.03843,-43.8832 6.57722,-5.99843 c 3.42015,-3.15706 3.68324,-8.47145 0.52618,-11.8916 l -5.73533,-6.15628 c -3.15707,-3.42015 -8.47146,-3.63063 -11.89162,-0.52618 l -29.04499,26.62458 c -4.99869,4.57775 -13.52277,4.94607 -18.20575,0 -4.89345,-5.20916 -4.47251,-13.20706 0.63142,-17.83741 l 34.51724,-31.62327 c 3.89371,-3.578 8.94501,-5.52487 14.20679,-5.52487 l 44.04106,-0.10523 c 1.10498,0 2.15732,0.42094 2.89398,1.21021 l 32.46515,32.41253 h 23.52013 z m 25.25652,25.09867 c -4.63037,0 -8.41885,-3.78848 -8.41885,-8.41884 0,-4.63037 3.78848,-8.41884 8.41885,-8.41884 4.63035,0 8.41883,3.78847 8.41883,8.41884 0,4.68298 -3.78848,8.41884 -8.41883,8.41884 z"
     id="path2"
     style="stroke-width:0.526176" />
  <ellipse
     style="fill:none;stroke:#000000;stroke-width:23.5418;stroke-miterlimit:4;stroke-dasharray:none;stroke-opacity:1"
     id="path835"
     cx="240"
     cy="239.99998"
     rx="228.22913"
     ry="228.22911" />
</svg>
