<?xml version="1.0" encoding="UTF-8" standalone="no"?>
<svg
   xmlns:dc="http://purl.org/dc/elements/1.1/"
   xmlns:cc="http://creativecommons.org/ns#"
   xmlns:rdf="http://www.w3.org/1999/02/22-rdf-syntax-ns#"
   xmlns:svg="http://www.w3.org/2000/svg"
   xmlns="http://www.w3.org/2000/svg"
   xmlns:sodipodi="http://sodipodi.sourceforge.net/DTD/sodipodi-0.dtd"
   xmlns:inkscape="http://www.inkscape.org/namespaces/inkscape"
   viewBox="0 0 480 480"
   version="1.1"
   id="svg4"
   sodipodi:docname="Значок Продать.svg"
   width="480"
   height="480"
   inkscape:version="1.0.2-2 (e86c870879, 2021-01-15)">
  <metadata
     id="metadata10">
    <rdf:RDF>
      <cc:Work
         rdf:about="">
        <dc:format>image/svg+xml</dc:format>
        <dc:type
           rdf:resource="http://purl.org/dc/dcmitype/StillImage" />
        <dc:title></dc:title>
      </cc:Work>
    </rdf:RDF>
  </metadata>
  <defs
     id="defs8" />
  <sodipodi:namedview
     pagecolor="#ffffff"
     bordercolor="#666666"
     borderopacity="1"
     objecttolerance="10"
     gridtolerance="10"
     guidetolerance="10"
     inkscape:pageopacity="0"
     inkscape:pageshadow="2"
     inkscape:window-width="1600"
     inkscape:window-height="838"
     id="namedview6"
     showgrid="false"
     inkscape:zoom="0.65312309"
     inkscape:cx="320"
     inkscape:cy="225.43284"
     inkscape:window-x="-8"
     inkscape:window-y="-8"
     inkscape:window-maximized="1"
     inkscape:current-layer="svg4" />
  <!-- Font Awesome Free 5.15.2 by @fontawesome - https://fontawesome.com License - https://fontawesome.com/license/free (Icons: CC BY 4.0, Fonts: SIL OFL 1.1, Code: MIT License) -->
  <g
     id="g846">
    <path
       d="M 394.60219,323.36824 H 144.22971 V 137.60802 c 0,-4.46229 -3.61425,-8.07654 -8.07653,-8.07654 H 87.693989 c -4.462284,0 -8.076532,3.61425 -8.076532,8.07654 v 16.15305 c 0,4.46229 3.614248,8.07654 8.076532,8.07654 h 24.229601 v 185.76023 c 0,4.46229 3.61424,8.07654 8.07652,8.07654 h 41.86672 c -0.90356,2.53905 -1.48405,5.22955 -1.48405,8.07652 0,13.38181 10.84779,24.2296 24.22958,24.2296 13.38181,0 24.2296,-10.84779 24.2296,-24.2296 0,-2.84697 -0.5805,-5.53747 -1.48406,-8.07652 h 99.88651 c -0.90357,2.53905 -1.48407,5.22955 -1.48407,8.07652 0,13.38181 10.8478,24.2296 24.22959,24.2296 13.38181,0 24.22961,-10.84779 24.22961,-24.2296 0,-2.84697 -0.58051,-5.53747 -1.48407,-8.07652 h 41.86672 c 4.46229,0 8.07654,-3.61425 8.07654,-8.07654 v -16.15306 c 0,-4.46229 -3.61425,-8.07654 -8.07654,-8.07654 z"
       id="path2"
       sodipodi:nodetypes="scsssssscsscsssccssscssss"
       style="stroke-width:0.504783" />
    <path
       d="m 271.39117,163.07483 -71.27372,66.4681 v 71.73828 a 6.1852767,7.0035546 0 0 0 6.18528,7.00356 l 43.32013,-0.12695 a 6.1852767,7.0035546 0 0 0 6.15435,-7.00355 v -41.89438 a 6.1852767,7.0035546 0 0 1 6.18528,-7.00355 h 24.7411 a 6.1852767,7.0035546 0 0 1 6.18528,7.00355 v 41.86375 a 6.1852767,7.0035546 0 0 0 6.18527,7.02544 l 43.30467,0.13569 a 6.1852767,7.0035546 0 0 0 6.18528,-7.00356 v -71.78643 l -71.25826,-66.41995 a 4.7124075,5.335833 0 0 0 -5.91466,0 z m 112.58363,45.1773 -32.31808,-30.16343 v -60.6289 a 4.6389573,5.2526659 0 0 0 -4.63895,-5.25267 H 325.3693 a 4.6389573,5.2526659 0 0 0 -4.63896,5.25267 v 31.78301 l -34.61049,-32.24262 a 18.555829,21.010664 0 0 0 -23.58136,0 l -97.85493,91.25194 a 4.6389573,5.2526659 0 0 0 -0.61853,7.39749 l 9.85778,13.5694 a 4.6389573,5.2526659 0 0 0 6.53706,0.71348 l 90.9313,-84.80429 a 4.7124075,5.335833 0 0 1 5.91466,0 L 368.241,229.9325 a 4.6389573,5.2526659 0 0 0 6.5332,-0.70036 l 9.85778,-13.56937 a 4.6389573,5.2526659 0 0 0 -0.65718,-7.41064 z"
       id="path2-9"
       style="stroke-width:0.411357" />
  </g>
  <ellipse
     style="opacity:0.975;fill:none;fill-opacity:0.976471;stroke:#020200;stroke-width:24.9998;stroke-miterlimit:4;stroke-dasharray:none;stroke-opacity:0.899193"
     id="path31"
     cx="240"
     cy="240.00002"
     rx="227.50011"
     ry="227.50012" />
</svg>
