<?xml version="1.0" encoding="UTF-8" standalone="no"?>
<svg
   xmlns:dc="http://purl.org/dc/elements/1.1/"
   xmlns:cc="http://creativecommons.org/ns#"
   xmlns:rdf="http://www.w3.org/1999/02/22-rdf-syntax-ns#"
   xmlns:svg="http://www.w3.org/2000/svg"
   xmlns="http://www.w3.org/2000/svg"
   xmlns:sodipodi="http://sodipodi.sourceforge.net/DTD/sodipodi-0.dtd"
   xmlns:inkscape="http://www.inkscape.org/namespaces/inkscape"
   width="400"
   height="60"
   viewBox="0 0 105.83333 15.874999"
   version="1.1"
   id="svg891"
   inkscape:version="1.0.2-2 (e86c870879, 2021-01-15)"
   sodipodi:docname="Силуэт домов - вручную.svg">
  <defs
     id="defs885">
    <inkscape:path-effect
       effect="bspline"
       id="path-effect1506"
       is_visible="true"
       lpeversion="1"
       weight="33.333333"
       steps="2"
       helper_size="0"
       apply_no_weight="true"
       apply_with_weight="true"
       only_selected="false" />
    <inkscape:path-effect
       effect="bspline"
       id="path-effect1489"
       is_visible="true"
       lpeversion="1"
       weight="33.333333"
       steps="2"
       helper_size="0"
       apply_no_weight="true"
       apply_with_weight="true"
       only_selected="false" />
    <inkscape:path-effect
       effect="bspline"
       id="path-effect1459"
       is_visible="true"
       lpeversion="1"
       weight="33.333333"
       steps="2"
       helper_size="0"
       apply_no_weight="true"
       apply_with_weight="true"
       only_selected="false" />
  </defs>
  <sodipodi:namedview
     id="base"
     pagecolor="#ffffff"
     bordercolor="#666666"
     borderopacity="1.0"
     inkscape:pageopacity="0.0"
     inkscape:pageshadow="2"
     inkscape:zoom="1.88"
     inkscape:cx="214.68303"
     inkscape:cy="113.26172"
     inkscape:document-units="px"
     inkscape:current-layer="layer2"
     inkscape:document-rotation="0"
     showgrid="false"
     units="px"
     inkscape:window-width="1600"
     inkscape:window-height="838"
     inkscape:window-x="-8"
     inkscape:window-y="-8"
     inkscape:window-maximized="1" />
  <metadata
     id="metadata888">
    <rdf:RDF>
      <cc:Work
         rdf:about="">
        <dc:format>image/svg+xml</dc:format>
        <dc:type
           rdf:resource="http://purl.org/dc/dcmitype/StillImage" />
        <dc:title></dc:title>
      </cc:Work>
    </rdf:RDF>
  </metadata>
  <g
     inkscape:label="Фон"
     inkscape:groupmode="layer"
     id="layer1">
    <rect
       style="fill:#ffffff;stroke-width:0.098048;stroke-opacity:0.899193"
       id="rect1454"
       width="105.83333"
       height="15.875"
       x="1.7529297e-06"
       y="-1.4768372e-06" />
  </g>
  <g
     inkscape:groupmode="layer"
     id="layer2"
     inkscape:label="Домики">
    <path
       style="fill:#d2c5b8;fill-opacity:1;stroke:none;stroke-width:0;stroke-linecap:butt;stroke-linejoin:miter;stroke-miterlimit:4;stroke-dasharray:none;stroke-opacity:1"
       d="m 105.83333,8.9958329 c 0,0 -4.40903,-4.5596843 -4.40903,-4.5596843 0,0 -0.13979,-3.4344377 -0.13979,-3.4344377 0,0 -1.537666,-0.14310158 -1.537666,-0.14310158 0,0 0.139798,3.00513308 0.139798,3.00513308 0,0 -3.494724,-3.29133632 -3.494724,-3.29133632 0,0 -4.333455,5.86716292 -4.333455,5.86716292 0,0 -3.354932,-3.1482329 -3.354932,-3.1482329 0,0 -3.63451,3.2913353 -3.63451,3.2913353 0,0 -1.118313,-0.8586082 -1.118313,-0.8586082 0,0 0.139791,-2.5758288 0.139791,-2.5758288 0,0 -1.397888,0 -1.397888,0 0,0 0,1.5741172 0,1.5741172 0,0 -2.236623,-2.1465234 -2.236623,-2.1465234 0,0 -4.613031,4.0068432 -4.613031,4.0068432 0,0 -4.473245,-3.8637414 -4.473245,-3.8637414 0,0 -3.774297,4.436149 -3.774297,4.436149 0,0 -2.655989,-4.2930475 -2.655989,-4.2930475 0,0 -2.236622,3.5775375 -2.236622,3.5775375 0,0 -5.871133,-6.439569 -5.871133,-6.439569 0,0 -2.516199,2.71893 -2.516199,2.71893 0,0 0,-1.5741173 0,-1.5741173 0,0 -1.957041,0.286203 -1.957041,0.286203 0,0 0.139787,2.8620316 0.139787,2.8620316 0,0 -4.752821,3.8637423 -4.752821,3.8637423 0,0 -3.914087,-5.0085552 -3.914087,-5.0085552 0,0 -6.849653,6.1533682 -6.849653,6.1533682 0,0 -1.258102,-2.1465236 -1.258102,-2.1465236 0,0 0.419368,-2.8620317 0.419368,-2.8620317 0,0 -1.957045,0 -1.957045,0 0,0 0.279579,2.4327276 0.279579,2.4327276 0,0 -2.655989,-3.8637434 -2.655989,-3.8637434 0,0 -7.688389,5.0085542 -7.688389,5.0085542 0,0 -2.795776,-3.5775384 -2.795776,-3.5775384 0,0 -6.01092,3.2913367 -6.01092,3.2913367 0,0 -2.096832,-3.7206416 -2.096832,-3.7206416 0,0 -3.9140888,4.0068433 -3.9140888,4.0068433 0,0 -2.6559883,-4.436148 -2.6559883,-4.436148 0,0 -6.6474739,5.5613952 -6.6474739,5.5613952 0,0 0,6.8791661 0,6.8791661 0,0 105.83333,0 105.83333,0 0,0 0,-6.8791661 0,-6.8791661 z"
       id="path1457"
       inkscape:path-effect="#path-effect1459"
       inkscape:original-d="M 105.83333,8.9958329 101.4243,4.4361486 101.28451,1.0017109 99.746844,0.85860932 99.886642,3.8637424 96.391918,0.57240608 92.058463,6.439569 88.703531,3.2913361 85.069021,6.5826714 83.950708,5.7240632 84.090499,3.1482344 H 82.692611 V 4.7223516 L 80.455988,2.5758282 75.842957,6.5826714 71.369712,2.71893 67.595415,7.155079 64.939426,2.8620315 62.702804,6.439569 56.831671,0 54.315472,2.71893 V 1.1448127 L 52.358431,1.4310157 52.498218,4.2930473 47.745397,8.1567896 43.83131,3.1482344 36.981657,9.3016026 35.723555,7.155079 36.142923,4.2930473 H 34.185878 L 34.465457,6.7257749 31.809468,2.8620315 24.121079,7.8705857 21.325303,4.2930473 15.314383,7.584384 13.217551,3.8637424 9.3034622,7.8705857 6.6474739,3.4344377 0,8.9958329 v 6.8791661 h 105.83333 z"
       sodipodi:nodetypes="cccccccccccccccccccccccccccccccccccccccccc" />
    <rect
       style="fill:#ffffff;stroke-width:0.098048;stroke-opacity:0.899193"
       id="rect1454-4"
       width="105.83333"
       height="15.875"
       x="61.360813"
       y="16.691267" />
    <rect
       style="fill:#ffffff;stroke-width:0.098048;stroke-opacity:0.899193"
       id="rect1454-0"
       width="105.83333"
       height="15.875"
       x="-44.472519"
       y="16.691267" />
  </g>
</svg>
