<?xml version="1.0" encoding="UTF-8" standalone="no"?>
<svg
   xmlns:dc="http://purl.org/dc/elements/1.1/"
   xmlns:cc="http://creativecommons.org/ns#"
   xmlns:rdf="http://www.w3.org/1999/02/22-rdf-syntax-ns#"
   xmlns:svg="http://www.w3.org/2000/svg"
   xmlns="http://www.w3.org/2000/svg"
   xmlns:sodipodi="http://sodipodi.sourceforge.net/DTD/sodipodi-0.dtd"
   xmlns:inkscape="http://www.inkscape.org/namespaces/inkscape"
   viewBox="0 0 480 480"
   version="1.1"
   id="svg4"
   sodipodi:docname="Значок Арендовать.svg"
   width="480"
   height="480"
   inkscape:version="1.0.2-2 (e86c870879, 2021-01-15)">
  <metadata
     id="metadata10">
    <rdf:RDF>
      <cc:Work
         rdf:about="">
        <dc:format>image/svg+xml</dc:format>
        <dc:type
           rdf:resource="http://purl.org/dc/dcmitype/StillImage" />
        <dc:title></dc:title>
      </cc:Work>
    </rdf:RDF>
  </metadata>
  <defs
     id="defs8" />
  <sodipodi:namedview
     pagecolor="#ffffff"
     bordercolor="#666666"
     borderopacity="1"
     objecttolerance="10"
     gridtolerance="10"
     guidetolerance="10"
     inkscape:pageopacity="0"
     inkscape:pageshadow="2"
     inkscape:window-width="1600"
     inkscape:window-height="838"
     id="namedview6"
     showgrid="false"
     inkscape:zoom="0.92630988"
     inkscape:cx="288"
     inkscape:cy="256"
     inkscape:window-x="-8"
     inkscape:window-y="-8"
     inkscape:window-maximized="1"
     inkscape:current-layer="svg4" />
  <!-- Font Awesome Free 5.15.2 by @fontawesome - https://fontawesome.com License - https://fontawesome.com/license/free (Icons: CC BY 4.0, Fonts: SIL OFL 1.1, Code: MIT License) -->
  <path
     d="m 395.8476,267.32103 c -6.64713,-6.02747 -17.01213,-5.63316 -23.99724,0 l -52.05035,41.62902 c -6.3893,5.12587 -14.34133,7.90908 -22.53262,7.88642 h -66.62332 c -4.97778,0 -9.01305,-4.03528 -9.01305,-9.01306 0,-4.97777 4.03527,-9.01305 9.01305,-9.01305 h 44.10196 c 8.95672,0 17.29943,-6.14014 18.73024,-14.98418 0.17641,-1.01565 0.26311,-2.04486 0.25912,-3.07571 -0.0186,-9.94233 -8.08374,-17.99231 -18.02609,-17.9923 h -90.13048 c -15.20045,0.004 -29.93763,5.23262 -41.74168,14.80957 l -26.19417,21.24262 H 86.435284 c -4.977769,0 -9.013047,4.03528 -9.013046,9.01305 v 54.0783 c 5e-6,4.97777 4.035281,9.01304 9.013046,9.01304 H 287.40937 c 8.18854,0.006 16.13532,-2.77497 22.53262,-7.88641 l 85.19019,-68.16118 c 8.72192,-6.976 9.06606,-20.12339 0.72105,-27.54613 z"
     id="path2"
     style="stroke-width:0.563316"
     sodipodi:nodetypes="ccccssssccccccssssccccc" />
  <ellipse
     style="opacity:0.975;fill:none;fill-opacity:0.976471;stroke:#020200;stroke-width:21.8077;stroke-miterlimit:4;stroke-dasharray:none;stroke-opacity:0.899193"
     id="path31"
     cx="239.99995"
     cy="240.00018"
     rx="229.0961"
     ry="229.09633" />
  <path
     d="m 163.94586,118.73919 c 0,33.4624 27.1267,60.58876 60.58911,60.58876 3.86256,0 7.63905,-0.3656 11.3009,-1.05653 l 8.26629,9.29975 a 8.2618068,8.2618068 0 0 0 6.17527,2.77299 h 12.81424 v 13.77025 c 0,4.56311 3.69904,8.26214 8.26216,8.26214 h 13.77025 v 13.77026 c 0,4.56312 3.69903,8.26215 8.26214,8.26215 h 38.55672 c 4.56312,0 8.26216,-3.69903 8.26216,-8.26215 v -26.8723 c 0,-2.19119 -0.87063,-4.29289 -2.41978,-5.84238 l -55.70137,-55.70136 c 1.97019,-5.97422 3.04013,-12.35776 3.04013,-18.99192 0,-33.462412 -27.12636,-60.588775 -60.58877,-60.589126 -33.5612,-3.45e-4 -60.58945,27.027917 -60.58945,60.589466 z m 60.58911,-16.52465 c 0,9.12623 -7.39807,16.52431 -16.52431,16.52431 -9.12623,0 -16.5243,-7.39808 -16.5243,-16.52431 0,-9.12623 7.39807,-16.524306 16.5243,-16.524306 9.12624,0 16.52431,7.398076 16.52431,16.524306 z"
     id="path2-8"
     style="stroke-width:0.344257" />
</svg>
