<?xml version="1.0" encoding="UTF-8" standalone="no"?>
<svg
   xmlns:dc="http://purl.org/dc/elements/1.1/"
   xmlns:cc="http://creativecommons.org/ns#"
   xmlns:rdf="http://www.w3.org/1999/02/22-rdf-syntax-ns#"
   xmlns:svg="http://www.w3.org/2000/svg"
   xmlns="http://www.w3.org/2000/svg"
   xmlns:sodipodi="http://sodipodi.sourceforge.net/DTD/sodipodi-0.dtd"
   xmlns:inkscape="http://www.inkscape.org/namespaces/inkscape"
   version="1.1"
   id="svg17"
   width="480"
   height="480"
   viewBox="0 0 480 480"
   sodipodi:docname="Значок Услуги.svg"
   inkscape:version="1.0.2-2 (e86c870879, 2021-01-15)">
  <metadata
     id="metadata23">
    <rdf:RDF>
      <cc:Work
         rdf:about="">
        <dc:format>image/svg+xml</dc:format>
        <dc:type
           rdf:resource="http://purl.org/dc/dcmitype/StillImage" />
        <dc:title />
      </cc:Work>
    </rdf:RDF>
  </metadata>
  <defs
     id="defs21" />
  <sodipodi:namedview
     pagecolor="#ffffff"
     bordercolor="#666666"
     borderopacity="1"
     objecttolerance="10"
     gridtolerance="10"
     guidetolerance="10"
     inkscape:pageopacity="0"
     inkscape:pageshadow="2"
     inkscape:window-width="1600"
     inkscape:window-height="838"
     id="namedview19"
     showgrid="false"
     inkscape:zoom="0.65312309"
     inkscape:cx="324.91148"
     inkscape:cy="456.90621"
     inkscape:window-x="-8"
     inkscape:window-y="-8"
     inkscape:window-maximized="1"
     inkscape:current-layer="g25"
     inkscape:document-rotation="0" />
  <g
     inkscape:groupmode="layer"
     inkscape:label="Image"
     id="g25">
    <path
       style="fill:#000000;stroke-width:0.78586"
       d="m 142.51724,342.45074 0.20219,-50.83696 48.32143,-39.88225 c 41.08751,-33.91171 48.49926,-39.73201 49.50925,-38.87868 0.6533,0.55196 14.62604,12.11917 31.05054,25.70489 16.4245,13.58574 37.73116,31.21646 47.34813,39.17939 l 17.48542,14.47803 v 50.53628 50.53626 h -97.05958 -97.05959 z m 95.68431,-4.56629 v -16.89604 h -18.0748 -18.07481 v 16.89604 16.89602 h 18.07481 18.0748 z m 40.07892,0 V 320.98841 H 260.5986 242.91672 v 16.89604 16.89602 h 17.68188 17.68187 z m -40.07892,-38.11431 v -16.5031 h -18.0748 -18.07481 v 16.5031 16.5031 h 18.07481 18.0748 z m 40.07892,0 v -16.5031 H 260.5986 242.91672 v 16.5031 16.5031 h 17.68188 17.68187 z m -169.938,-13.2722 -0.20093,-65.92496 -24.300428,19.98524 c -19.700462,16.20212 -24.486887,19.793 -25.28543,18.96971 -0.541755,-0.55855 -5.620691,-6.66932 -11.286512,-13.57951 l -10.301501,-12.56398 1.794905,-1.33657 c 0.987202,-0.73511 17.178142,-14.01158 35.979869,-29.50328 l 34.184957,-28.16671 0.20519,-32.40817 0.2052,-32.40816 17.47668,0.21148 17.47668,0.21148 0.39293,17.32595 0.39293,17.32594 47.15167,-38.29161 c 40.02382,-32.503131 47.32986,-38.139516 48.33046,-37.285467 0.64833,0.553381 45.38348,37.538117 99.41143,82.188297 54.02795,44.65019 98.49848,81.41084 98.8234,81.69034 0.46776,0.40236 -16.77624,22.291 -20.95216,26.59559 -0.806,0.83082 -5.37211,-2.58832 -24.49957,-18.34555 l -23.50895,-19.36672 -0.20098,65.32571 -0.20099,65.3257 -9.22935,-0.22136 -9.22935,-0.22138 -0.39292,-36.23706 -0.39294,-36.23707 -19.84299,-16.35369 -19.84299,-16.35369 v -24.22723 -24.22724 h -12.16312 -12.16312 l -0.21419,14.0625 -0.2142,14.06249 -22.39704,-18.82014 c -12.31837,-10.35108 -22.82211,-19.00917 -23.34163,-19.2402 -0.51953,-0.23103 -26.06984,20.32879 -56.77847,45.68849 l -55.83387,46.10854 v 36.08362 36.08362 h -9.42588 -9.42586 z"
       id="path29" />
    <ellipse
       style="opacity:0.975;fill:none;fill-opacity:0.976471;stroke:#020200;stroke-width:24.9998;stroke-miterlimit:4;stroke-dasharray:none;stroke-opacity:0.899193"
       id="path31"
       cx="240"
       cy="240.00002"
       rx="227.50011"
       ry="227.50012" />
  </g>
</svg>
