<?xml version="1.0" encoding="UTF-8" standalone="no"?>
<svg
   xmlns:dc="http://purl.org/dc/elements/1.1/"
   xmlns:cc="http://creativecommons.org/ns#"
   xmlns:rdf="http://www.w3.org/1999/02/22-rdf-syntax-ns#"
   xmlns:svg="http://www.w3.org/2000/svg"
   xmlns="http://www.w3.org/2000/svg"
   xmlns:sodipodi="http://sodipodi.sourceforge.net/DTD/sodipodi-0.dtd"
   xmlns:inkscape="http://www.inkscape.org/namespaces/inkscape"
   viewBox="0 0 480 480"
   version="1.1"
   id="svg4"
   sodipodi:docname="Значок Купить.svg"
   width="480"
   height="480"
   inkscape:version="1.0.2-2 (e86c870879, 2021-01-15)">
  <metadata
     id="metadata10">
    <rdf:RDF>
      <cc:Work
         rdf:about="">
        <dc:format>image/svg+xml</dc:format>
        <dc:type
           rdf:resource="http://purl.org/dc/dcmitype/StillImage" />
        <dc:title />
      </cc:Work>
    </rdf:RDF>
  </metadata>
  <defs
     id="defs8" />
  <sodipodi:namedview
     pagecolor="#ffffff"
     bordercolor="#666666"
     borderopacity="1"
     objecttolerance="10"
     gridtolerance="10"
     guidetolerance="10"
     inkscape:pageopacity="0"
     inkscape:pageshadow="2"
     inkscape:window-width="1600"
     inkscape:window-height="838"
     id="namedview6"
     showgrid="false"
     inkscape:zoom="0.57021062"
     inkscape:cx="288"
     inkscape:cy="256"
     inkscape:window-x="-8"
     inkscape:window-y="-8"
     inkscape:window-maximized="1"
     inkscape:current-layer="svg4"
     inkscape:document-rotation="0" />
  <!-- Font Awesome Free 5.15.2 by @fontawesome - https://fontawesome.com License - https://fontawesome.com/license/free (Icons: CC BY 4.0, Fonts: SIL OFL 1.1, Code: MIT License) -->
  <path
     d="m 235.35544,174.463 -112.12416,92.3472 v 99.66929 c 0,5.37394 4.35643,9.73036 9.73036,9.73036 l 68.14901,-0.17636 c 5.35492,-0.0268 72.4084,-0.0122 77.79423,-0.0122 l 68.12468,0.18852 c 5.37393,0 9.73036,-4.35642 9.73036,-9.73036 V 266.7433 L 244.66009,174.463 c -2.7154,-2.18875 -6.58925,-2.18875 -9.30465,0 z m 177.11079,62.7669 -50.84113,-41.90744 v -84.23451 c 0,-4.03045 -3.26732,-7.29777 -7.29777,-7.29777 h -34.05626 c -4.03045,0 -7.29777,3.26732 -7.29777,7.29777 v 44.15759 l -54.44744,-44.79615 c -10.77593,-8.86749 -26.32107,-8.86749 -37.097,0 L 67.488478,237.2299 c -3.107941,2.56881 -3.543677,7.17127 -0.973036,10.2777 l 15.507762,18.85257 c 2.563895,3.11757 7.171596,3.56172 10.283774,0.99128 L 235.35544,149.52895 c 2.7154,-2.18875 6.58925,-2.18875 9.30465,0 l 143.05454,117.8225 c 3.10642,2.57064 7.70888,2.13491 10.27769,-0.97304 l 15.50777,-18.85257 c 2.56867,-3.12531 2.10492,-7.74374 -1.03386,-10.29594 z"
     id="path2"
     sodipodi:nodetypes="ccsccccscccccssssccccccccccccc"
     style="stroke-width:0.608148" />
  <path
     d="m 289.33911,250.28086 c -13.1056,-11.16847 -32.59661,-9.15958 -44.62603,3.25249 l -4.71132,4.85481 -4.71132,-4.85481 c -12.00551,-12.41207 -31.52043,-14.42096 -44.62604,-3.25249 -15.01884,12.81862 -15.80804,35.82518 -2.36762,49.72 l 46.27619,47.78286 c 2.98942,3.08508 7.84424,3.08508 10.83365,0 l 46.2762,-47.78286 c 13.46434,-13.89482 12.67513,-36.90138 -2.34371,-49.72 z"
     id="path2-4"
     style="fill:#d2c5b8;stroke-width:0.239153;fill-opacity:1" />
  <ellipse
     style="opacity:0.975;fill:none;fill-opacity:0.976471;stroke:#020200;stroke-width:24.9998;stroke-miterlimit:4;stroke-dasharray:none;stroke-opacity:0.899193"
     id="path31"
     cx="240"
     cy="240.00002"
     rx="227.50011"
     ry="227.50012" />
</svg>
