<?xml version="1.0" encoding="UTF-8" standalone="no"?>
<svg
   xmlns:dc="http://purl.org/dc/elements/1.1/"
   xmlns:cc="http://creativecommons.org/ns#"
   xmlns:rdf="http://www.w3.org/1999/02/22-rdf-syntax-ns#"
   xmlns:svg="http://www.w3.org/2000/svg"
   xmlns="http://www.w3.org/2000/svg"
   xmlns:sodipodi="http://sodipodi.sourceforge.net/DTD/sodipodi-0.dtd"
   xmlns:inkscape="http://www.inkscape.org/namespaces/inkscape"
   viewBox="0 0 480 480"
   version="1.1"
   id="svg4"
   sodipodi:docname="Значок Купить.svg"
   width="480"
   height="480"
   inkscape:version="1.0.2-2 (e86c870879, 2021-01-15)">
  <metadata
     id="metadata10">
    <rdf:RDF>
      <cc:Work
         rdf:about="">
        <dc:format>image/svg+xml</dc:format>
        <dc:type
           rdf:resource="http://purl.org/dc/dcmitype/StillImage" />
        <dc:title></dc:title>
      </cc:Work>
    </rdf:RDF>
  </metadata>
  <defs
     id="defs8" />
  <sodipodi:namedview
     pagecolor="#ffffff"
     bordercolor="#666666"
     borderopacity="1"
     objecttolerance="10"
     gridtolerance="10"
     guidetolerance="10"
     inkscape:pageopacity="0"
     inkscape:pageshadow="2"
     inkscape:window-width="1600"
     inkscape:window-height="838"
     id="namedview6"
     showgrid="false"
     inkscape:zoom="0.57021062"
     inkscape:cx="288"
     inkscape:cy="256"
     inkscape:window-x="-8"
     inkscape:window-y="-8"
     inkscape:window-maximized="1"
     inkscape:current-layer="svg4" />
  <!-- Font Awesome Free 5.15.2 by @fontawesome - https://fontawesome.com License - https://fontawesome.com/license/free (Icons: CC BY 4.0, Fonts: SIL OFL 1.1, Code: MIT License) -->
  <g
     id="g864"
     transform="matrix(0.60814751,0,0,0.60814751,64.849118,84.299049)">
    <path
       d="M 280.37,148.26 96,300.11 V 464 c 0,8.83656 7.16344,16 16,16 l 112.06,-0.29 c 8.8053,-0.044 119.06388,-0.02 127.92,-0.02 L 464,480 c 8.83656,0 16,-7.16344 16,-16 V 300 L 295.67,148.26 c -4.46504,-3.59905 -10.83496,-3.59905 -15.3,0 z M 571.6,251.47 488,182.56 V 44.05 c 0,-6.627417 -5.37258,-12 -12,-12 h -56 c -6.62742,0 -12,5.372583 -12,12 v 72.61 L 318.47,43 c -17.71927,-14.581155 -43.28073,-14.581155 -61,0 L 4.34,251.47 c -5.11050552,4.22399 -5.8270027,11.79199 -1.6,16.9 l 25.5,31 c 4.215911,5.12634 11.792527,5.85667 16.91,1.63 L 280.37,107.26 c 4.46504,-3.59905 10.83496,-3.59905 15.3,0 L 530.9,301 c 5.10801,4.227 12.67601,3.51051 16.9,-1.6 l 25.5,-31 c 4.22377,-5.13906 3.46121,-12.73332 -1.7,-16.93 z"
       id="path2"
       sodipodi:nodetypes="ccsccccscccccssssccccccccccccc" />
    <path
       d="m 369.13741,272.93018 c -21.55005,-18.36473 -53.59985,-15.06144 -73.38028,5.34819 l -7.74701,7.98295 -7.747,-7.98295 c -19.74111,-20.40963 -51.83023,-23.71292 -73.38028,-5.34819 -24.69605,21.07815 -25.99377,58.90871 -3.89317,81.75648 l 76.0937,78.57117 c 4.91561,5.07292 12.89857,5.07292 17.81418,0 l 76.0937,-78.57117 c 22.13993,-22.84777 20.8422,-60.67833 -3.85384,-81.75648 z"
       id="path2-4"
       style="fill:#ffffff;stroke-width:0.393249" />
  </g>
  <ellipse
     style="opacity:0.975;fill:none;fill-opacity:0.976471;stroke:#020200;stroke-width:24.9998;stroke-miterlimit:4;stroke-dasharray:none;stroke-opacity:0.899193"
     id="path31"
     cx="240"
     cy="240.00002"
     rx="227.50011"
     ry="227.50012" />
</svg>
