<?xml version="1.0" encoding="UTF-8" standalone="no"?>
<svg
   xmlns:dc="http://purl.org/dc/elements/1.1/"
   xmlns:cc="http://creativecommons.org/ns#"
   xmlns:rdf="http://www.w3.org/1999/02/22-rdf-syntax-ns#"
   xmlns:svg="http://www.w3.org/2000/svg"
   xmlns="http://www.w3.org/2000/svg"
   xmlns:sodipodi="http://sodipodi.sourceforge.net/DTD/sodipodi-0.dtd"
   xmlns:inkscape="http://www.inkscape.org/namespaces/inkscape"
   version="1.1"
   id="svg17"
   width="1000"
   height="1000"
   viewBox="0 0 1000 1000"
   sodipodi:docname="Значок домик.svg"
   inkscape:version="1.0.2-2 (e86c870879, 2021-01-15)">
  <metadata
     id="metadata23">
    <rdf:RDF>
      <cc:Work
         rdf:about="">
        <dc:format>image/svg+xml</dc:format>
        <dc:type
           rdf:resource="http://purl.org/dc/dcmitype/StillImage" />
        <dc:title></dc:title>
      </cc:Work>
    </rdf:RDF>
  </metadata>
  <defs
     id="defs21" />
  <sodipodi:namedview
     pagecolor="#ffffff"
     bordercolor="#666666"
     borderopacity="1"
     objecttolerance="10"
     gridtolerance="10"
     guidetolerance="10"
     inkscape:pageopacity="0"
     inkscape:pageshadow="2"
     inkscape:window-width="1600"
     inkscape:window-height="838"
     id="namedview19"
     showgrid="false"
     inkscape:zoom="0.65312309"
     inkscape:cx="324.91148"
     inkscape:cy="518.15041"
     inkscape:window-x="-8"
     inkscape:window-y="-8"
     inkscape:window-maximized="1"
     inkscape:current-layer="g25" />
  <g
     inkscape:groupmode="layer"
     inkscape:label="Image"
     id="g25">
    <g
       id="g2421"
       transform="translate(-99.215601,136.67664)">
      <path
         style="fill:#000000;stroke-width:1.33333"
         d="M 437.65695,531.08073 438,444.82815 519.98469,377.16189 c 69.71123,-57.53633 82.28639,-67.41135 84,-65.96355 1.10842,0.93648 24.81531,20.562 52.68198,43.61223 27.86666,23.05026 64.01666,52.96343 80.33333,66.47374 l 29.66667,24.56417 v 85.74242 85.74241 H 601.99028 437.31388 Z M 600,523.33332 v -28.66667 h -30.66667 -30.66666 v 28.66667 28.66666 H 569.33333 600 Z m 68,0 v -28.66667 h -30 -30 v 28.66667 28.66666 h 30 30 z m -68,-64.66667 v -28 h -30.66667 -30.66666 v 28 28 H 569.33333 600 Z m 68,0 v -28 h -30 -30 v 28 28 h 30 30 z m -288.32576,-22.5183 -0.34091,-111.85164 -41.22938,33.90797 c -33.42484,27.48935 -41.54574,33.58181 -42.90059,32.18497 -0.91917,-0.94765 -9.53636,-11.3155 -19.14929,-23.03968 l -17.47807,-21.31669 3.04533,-2.26769 c 1.67494,-1.24723 29.14534,-23.77277 61.04534,-50.05677 l 58,-47.78908 0.34814,-54.98535 0.34815,-54.98533 29.65185,0.3588 29.65186,0.3588 0.66666,29.39609 0.66667,29.39608 80,-64.9675 c 67.90652,-55.146466 80.30233,-64.709444 82,-63.260422 1.1,0.938894 77,63.689082 168.66667,139.444862 91.66666,75.75578 167.1177,138.12578 167.66898,138.59999 0.79362,0.68267 -28.46346,37.82005 -35.54854,45.12343 -1.3675,1.40962 -9.1146,-4.39148 -41.56726,-31.126 l -39.88652,-32.85855 -0.341,110.83492 -0.341,110.83491 -15.659,-0.37557 -15.659,-0.37559 -0.66666,-61.48166 L 790,424.37 756.33333,396.62349 722.66667,368.87699 v -41.10516 -41.10517 h -20.63659 -20.63659 l -0.36341,23.85916 -0.36341,23.85914 -38,-31.93121 c -20.9,-17.56217 -38.72119,-32.25193 -39.60264,-32.64391 -0.88146,-0.39197 -44.23146,34.49087 -96.33334,77.51743 L 412,425.55737 v 61.22131 61.2213 h -15.99243 -15.99242 z"
         id="path29" />
      <circle
         style="opacity:0.975;fill:none;fill-opacity:0.976471;stroke:#020200;stroke-width:37;stroke-miterlimit:4;stroke-dasharray:none;stroke-opacity:0.899193"
         id="path31"
         cx="603.05121"
         cy="357.25784"
         r="388.6965" />
    </g>
  </g>
</svg>
