<?xml version="1.0" encoding="UTF-8" standalone="no"?>
<svg
   xmlns:dc="http://purl.org/dc/elements/1.1/"
   xmlns:cc="http://creativecommons.org/ns#"
   xmlns:rdf="http://www.w3.org/1999/02/22-rdf-syntax-ns#"
   xmlns:svg="http://www.w3.org/2000/svg"
   xmlns="http://www.w3.org/2000/svg"
   xmlns:sodipodi="http://sodipodi.sourceforge.net/DTD/sodipodi-0.dtd"
   xmlns:inkscape="http://www.inkscape.org/namespaces/inkscape"
   viewBox="0 0 480 480"
   version="1.1"
   id="svg4"
   sodipodi:docname="Значок Сдать в аренду.svg"
   width="480"
   height="480"
   inkscape:version="1.0.2-2 (e86c870879, 2021-01-15)">
  <metadata
     id="metadata10">
    <rdf:RDF>
      <cc:Work
         rdf:about="">
        <dc:format>image/svg+xml</dc:format>
        <dc:type
           rdf:resource="http://purl.org/dc/dcmitype/StillImage" />
        <dc:title></dc:title>
      </cc:Work>
    </rdf:RDF>
  </metadata>
  <defs
     id="defs8" />
  <sodipodi:namedview
     pagecolor="#ffffff"
     bordercolor="#666666"
     borderopacity="1"
     objecttolerance="10"
     gridtolerance="10"
     guidetolerance="10"
     inkscape:pageopacity="0"
     inkscape:pageshadow="2"
     inkscape:window-width="1600"
     inkscape:window-height="838"
     id="namedview6"
     showgrid="false"
     inkscape:zoom="0.92630988"
     inkscape:cx="288"
     inkscape:cy="256"
     inkscape:window-x="-8"
     inkscape:window-y="-8"
     inkscape:window-maximized="1"
     inkscape:current-layer="svg4" />
  <!-- Font Awesome Free 5.15.2 by @fontawesome - https://fontawesome.com License - https://fontawesome.com/license/free (Icons: CC BY 4.0, Fonts: SIL OFL 1.1, Code: MIT License) -->
  <path
     d="m 230.11454,163.78364 30.57114,8.05541 a 4.8388803,4.8388803 0 0 1 3.73478,4.56286 c 0,2.59124 -2.30397,4.73184 -5.13745,4.73184 h -20.05403 a 16.899466,16.899466 0 0 1 -6.30349,-1.23929 c -2.95178,-1.2393 -6.3542,-0.95764 -8.61873,1.12663 l -10.70299,9.85803 a 6.5795252,6.5795252 0 0 0 -1.26746,1.49842 6.4330632,6.4330632 0 0 0 2.18566,8.86659 47.188941,47.188941 0 0 0 19.44001,6.47812 v 9.97068 c 0,4.95717 4.41077,9.01305 9.78479,9.01305 h 9.7848 c 5.37967,0 9.79042,-4.05588 9.79042,-9.01305 v -9.91435 c 18.54999,-2.02793 32.58217,-17.46278 30.13739,-35.48888 -1.77444,-12.95625 -12.65207,-23.26493 -26.22797,-26.87014 l -30.57115,-8.05541 a 4.8388803,4.8388803 0 0 1 -3.73477,-4.56287 c 0,-2.59124 2.30396,-4.73184 5.13743,-4.73184 h 20.05403 a 16.899466,16.899466 0 0 1 6.32604,1.23928 c 2.94614,1.2393 6.35419,0.95764 8.61873,-1.12662 l 10.703,-9.85802 a 6.3710985,6.3710985 0 0 0 1.22239,-1.46463 6.4386964,6.4386964 0 0 0 -2.16314,-8.88911 47.217107,47.217107 0 0 0 -19.44564,-6.47813 v -9.981953 c 0,-4.95718 -4.40513,-9.013047 -9.78479,-9.013047 h -9.7848 c -5.37967,0 -9.78478,4.055867 -9.78478,9.013047 v 9.914373 c -18.52745,2.02791 -32.5878,17.46276 -30.14303,35.48885 1.76882,12.95627 12.68024,23.26494 26.23361,26.87016 z M 395.8476,267.32103 c -6.64713,-6.02747 -17.01213,-5.63316 -23.99724,0 l -52.05035,41.62902 a 35.8494,35.8494 0 0 1 -22.53262,7.88642 h -66.62332 a 9.013055,9.013055 0 0 1 0,-18.02611 h 44.10196 c 8.95672,0 17.29943,-6.14014 18.73024,-14.98418 a 17.575444,17.575444 0 0 0 0.25912,-3.07571 18.026096,18.026096 0 0 0 -18.02609,-17.9923 h -90.13048 a 66.279704,66.279704 0 0 0 -41.74168,14.80957 l -26.19417,21.24262 H 86.435284 a 9.0130482,9.0130482 0 0 0 -9.013046,9.01305 v 54.0783 a 9.0130482,9.0130482 0 0 0 9.013046,9.01304 H 287.40937 a 36.052193,36.052193 0 0 0 22.53262,-7.88641 l 85.19019,-68.16118 a 18.026096,18.026096 0 0 0 0.72105,-27.54613 z"
     id="path2"
     style="stroke-width:0.563316" />
  <ellipse
     style="opacity:0.975;fill:none;fill-opacity:0.976471;stroke:#020200;stroke-width:21.8077;stroke-miterlimit:4;stroke-dasharray:none;stroke-opacity:0.899193"
     id="path31"
     cx="239.99995"
     cy="240.00018"
     rx="229.0961"
     ry="229.09633" />
</svg>
