<?xml version="1.0" encoding="UTF-8" standalone="no"?>
<svg
   xmlns:dc="http://purl.org/dc/elements/1.1/"
   xmlns:cc="http://creativecommons.org/ns#"
   xmlns:rdf="http://www.w3.org/1999/02/22-rdf-syntax-ns#"
   xmlns:svg="http://www.w3.org/2000/svg"
   xmlns="http://www.w3.org/2000/svg"
   xmlns:sodipodi="http://sodipodi.sourceforge.net/DTD/sodipodi-0.dtd"
   xmlns:inkscape="http://www.inkscape.org/namespaces/inkscape"
   width="244"
   height="64"
   viewBox="0 0 64.558332 16.933333"
   version="1.1"
   id="svg8"
   inkscape:version="1.0.2-2 (e86c870879, 2021-01-15)"
   sodipodi:docname="Logo-1.svg">
  <defs
     id="defs2" />
  <sodipodi:namedview
     id="base"
     pagecolor="#ffffff"
     bordercolor="#666666"
     borderopacity="1.0"
     inkscape:pageopacity="0.0"
     inkscape:pageshadow="2"
     inkscape:zoom="4.1777947"
     inkscape:cx="122.21988"
     inkscape:cy="32.220353"
     inkscape:document-units="px"
     inkscape:current-layer="layer1"
     inkscape:document-rotation="0"
     showgrid="true"
     units="px"
     inkscape:window-width="1600"
     inkscape:window-height="838"
     inkscape:window-x="-8"
     inkscape:window-y="-8"
     inkscape:window-maximized="1">
    <inkscape:grid
       type="xygrid"
       id="grid500901"
       enabled="false" />
  </sodipodi:namedview>
  <metadata
     id="metadata5">
    <rdf:RDF>
      <cc:Work
         rdf:about="">
        <dc:format>image/svg+xml</dc:format>
        <dc:type
           rdf:resource="http://purl.org/dc/dcmitype/StillImage" />
        <dc:title></dc:title>
      </cc:Work>
    </rdf:RDF>
  </metadata>
  <g
     inkscape:label="Слой 1"
     inkscape:groupmode="layer"
     id="layer1">
    <g
       id="g500934"
       transform="matrix(0.44696594,0,0,0.44848841,-13.339526,-18.934417)">
      <path
         style="fill:#d0103a;fill-opacity:1;stroke-width:0.352778"
         d="m 115.92239,67.27475 c 0,-6.985 0.0882,-12.93185 0.0882,-12.93185 l 5.99947,0.07724 0.0368,1.040159 c 0,0 -0.12908,0.183973 1.29491,-0.758376 0.49946,-0.330527 0.92203,-0.484663 1.32735,-0.635915 0.66706,-0.248928 1.34768,-0.369516 2.69274,-0.365205 3.83741,0.0123 6.03903,1.36108 7.64526,4.68377 1.13215,2.34201 1.12622,6.542735 -0.0131,8.900525 -1.64646,3.40747 -5.40907,5.008195 -9.129,4.261125 -1.07547,-0.21599 -2.31822,-0.63043 -2.76165,-0.92098 -0.44343,-0.29055 -0.99504,-0.52827 -0.99504,-0.52827 l -0.083,9.87778 h -3.10442 -2.99861 z m 11.39037,-1.0884 c 2.12009,-0.96597 2.7322,-4.56252 1.04504,-6.1403 -0.53357,-0.49898 -1.33317,-1.00033 -1.77686,-1.11411 -2.33572,-0.59894 -4.66133,1.1366 -4.66133,3.47862 0,1.7537 0.46222,2.60944 1.8746,3.47063 1.27061,0.77475 2.29326,0.86344 3.51855,0.30516 z M 33.157062,71.144161 C 31.966022,70.740397 29.844614,69.33803 29.844614,69.33803 l 2.30506,-3.799827 c 0,0 1.014927,0.680604 2.029811,1.121166 0.984827,0.427515 1.964167,0.615381 2.367794,0.615381 0.259996,0 0.649658,-0.04269 0.858412,-0.185121 0.424607,-0.289713 0.539944,-0.845707 0.368568,-1.269469 -0.108032,-0.267129 -1.420456,-1.06712 -2.916503,-1.77775 -3.144182,-1.49352 -3.954808,-2.53025 -3.954808,-5.05791 0,-4.12811 4.710432,-6.35752 10.531017,-4.98425 1.232408,0.29076 2.441073,0.72899 2.441073,0.72899 l -1.543154,4.01152 c 0,0 -0.973449,-0.15525 -2.084739,-0.47831 -1.543709,-0.44877 -2.517478,-0.655924 -3.15895,-0.363647 -0.762859,0.347584 -0.668987,0.984499 -0.357028,1.370888 0.322613,0.399585 1.134477,0.644018 2.638447,1.128849 3.624233,1.168334 4.939923,2.69044 4.93757,5.71216 -0.0018,2.24404 -0.999641,3.844508 -2.929229,4.69806 -1.027849,0.454668 -2.348134,0.929837 -3.782865,1.026549 -1.372011,0.09248 -3.020113,-0.210473 -4.438028,-0.691148 z m 19.703314,0.428974 c -2.277812,-0.55088 -4.767237,-2.115105 -5.954995,-4.542795 -0.821126,-1.67832 -0.98506,-2.45426 -0.95225,-4.50721 0.04992,-3.12334 1.480407,-5.388681 3.350963,-6.812087 0.477151,-0.363089 0.333035,-0.284616 0.868243,-0.588994 2.33,-1.325094 5.433345,-1.946641 8.255531,-0.583109 1.128386,0.545177 1.436987,0.64394 1.436987,0.64394 v -1.058333 h 5.820834 v 17.197917 l -2.651705,-0.0037 c -2.04984,-0.0028 -3.169129,0.0037 -3.169129,0.0037 v -1.322917 c 0,0 -0.976656,0.961605 -1.592857,1.223282 -1.159425,0.492362 -2.601777,0.610343 -3.737457,0.558203 -0.405725,-0.0186 -0.748323,0.01602 -1.674165,-0.207897 z m 4.955169,-5.386325 c 2.069676,-0.94301 2.702828,-4.4166 1.116944,-6.12779 -1.986905,-2.14391 -5.777557,-1.368055 -6.498401,1.471995 -0.0495,0.19504 -0.180649,1.066194 -0.06834,1.885824 0.08434,0.61549 0.462378,1.433008 0.884599,1.903768 1.115027,1.2432 3.424502,1.385943 4.565194,0.866203 z m 27.68233,5.3123 c -2.65811,-0.66689 -5.451948,-3.04828 -6.494222,-5.53549 -0.695855,-1.66054 -0.590295,-5.281101 0.205048,-7.03272 0.300896,-0.662677 0.923371,-1.652247 1.460892,-2.278845 0.83724,-0.975985 1.719877,-1.524066 2.797242,-2.071345 2.719107,-1.381249 7.680135,-1.179617 9.679953,0.39344 0.262662,0.20661 1.176001,0.834084 1.886665,1.621099 0.633651,0.701729 1.070021,1.544754 1.306939,2.102741 0.262525,0.618298 0.52208,1.96767 0.5768,2.99861 l 0.0995,1.87444 -3.688111,0.0653 c -2.028462,0.0359 -4.830794,0.0756 -6.227403,0.0882 l -2.539287,0.0229 0.141585,0.731061 c 0.122751,0.633818 0.71105,1.34894 1.469283,1.819027 0.874241,0.542009 2.122638,0.657462 3.004312,0.490542 0.642923,-0.121719 1.643126,-0.60082 2.222673,-1.06468 L 92.45347,64.88 l 2.183739,1.154415 c 1.093373,0.578002 1.893719,1.215427 1.893719,1.215427 0,0 -1.238036,2.056518 -3.186296,3.142178 -2.169058,1.20869 -5.543931,1.68485 -7.846737,1.10711 z m 5.808907,-11.332481 c 0,0 -0.197693,-0.939596 -0.639355,-1.393872 -0.675324,-0.694613 -1.77947,-1.009634 -2.509689,-1.014707 -0.670672,-0.0045 -1.604751,0.237343 -2.259604,0.733757 -0.242034,0.183475 -0.651734,0.618754 -0.830753,0.952978 -0.200578,0.374473 -0.156604,0.816455 -0.156604,0.816455 l 3.093355,-0.04159 z M 101.98767,71.38729 c -1.88952,-0.48649 -3.702815,-1.956684 -3.702815,-1.956684 0,0 0.520337,-0.990616 1.085157,-1.842056 0.56482,-0.85143 1.328078,-2.077196 1.328078,-2.077196 0,0 0.65551,0.318437 1.7784,0.880167 1.62611,0.81345 2.68781,0.95532 3.42217,0.69706 0.62531,-0.219911 0.79695,-0.624318 0.81294,-0.957094 0.0236,-0.490211 -0.70261,-0.984055 -1.91616,-1.480367 -4.17445,-1.707249 -5.100828,-2.71479 -5.100828,-5.54765 0,-3.3184 1.942728,-5.00522 6.287608,-5.45935 1.34008,-0.140067 3.42303,0.194209 4.88786,0.664269 1.12501,0.361014 1.84204,0.874453 1.84204,0.874453 l -1.95708,3.625698 c 0,0 -0.95019,-0.255803 -1.90603,-0.56844 -1.32608,-0.433736 -2.55133,-0.557998 -3.14843,-0.270611 -0.32223,0.155093 -0.36153,0.480074 -0.36153,0.827741 0,0.52144 0.47484,0.82655 2.02848,1.30339 4.38041,1.34444 6.01158,3.202218 5.65506,6.719848 -0.16971,1.67448 -0.86858,2.506833 -1.85421,3.335933 -1.97248,1.65921 -5.97006,2.057549 -9.18071,1.230889 z m 59.09027,0.009 c -2.47241,-0.57042 -4.62782,-1.82731 -5.62217,-3.27847 -0.92807,-1.35444 -1.70491,-3.312432 -1.70491,-4.866602 0,-1.439888 0.0657,-3.181486 0.9429,-4.791399 0.84932,-1.558833 2.48985,-2.99928 3.73835,-3.617879 5.52606,-2.738022 12.81277,-0.769021 15.00189,4.05378 0.38484,0.847836 0.78082,1.931536 0.83965,3.246313 0.0577,1.289589 -0.21513,2.810736 -0.51543,3.611367 -1.66832,4.447868 -7.19662,6.90805 -12.68028,5.64288 z m 3.48831,-4.701502 c 0.87523,-0.08029 1.84351,-0.465334 2.35951,-1.176819 0.87492,-1.206389 0.96914,-3.249585 0.6539,-4.422689 -0.13916,-0.517865 -0.68783,-1.454542 -1.43286,-1.914833 -0.65969,-0.407571 -1.49087,-0.371447 -2.07025,-0.371447 -0.63208,0 -1.22196,0.04959 -1.88936,0.491456 -0.76028,0.503353 -1.24779,0.955671 -1.48407,1.630375 -0.55423,1.582619 -0.35043,4.110459 1.02399,4.948499 1.27306,0.77623 1.85862,0.905409 2.83914,0.815458 z M 69.654439,42.747464 h 6.085416 V 56.77038 71.322464 H 72.300272 69.654439 Z M 138.42419,62.65548 c -0.0552,-4.6754 0.0242,-8.55762 0.0242,-8.55762 l 5.81851,0.02669 v 2.116667 l 1.22366,-1.027425 c 0.60858,-0.510984 1.67709,-1.118867 2.37567,-1.34942 0.76371,-0.252047 2.28426,-0.219279 3.48713,0.124847 1.04035,0.297631 2.07507,1.142425 2.07507,1.142425 0,0 -0.80047,1.367614 -1.21108,2.045203 -0.46119,0.761051 -1.40674,2.26895 -1.40674,2.26895 0,0 -1.00224,-0.401042 -2.0725,-0.549928 -0.68251,-0.09495 -1.44801,-0.0043 -1.81933,0.08885 -0.46427,0.116525 -1.19901,0.7298 -1.63277,1.36283 -0.7219,1.05353 -0.78859,1.857311 -0.77217,6.277341 l 0.0176,4.697574 h -6.08542 z m -60.601846,-16.45829 0.03418,-3.978893 24.131146,0.01014 24.2876,-0.01014 v 7.672917 H 77.856522 Z M 55.631522,42.218297 h 11.377083 v 7.672917 H 55.631522 Z"
         id="path847"
         sodipodi:nodetypes="ccccssssssscccccssssssaccsssssssccsssscssassssssccccsccassssssssscssssssscsscsssscscssscscsscccssscsssssssccssssssssassssssssacssssssacccccccccccssscacsssscccccccccccccccc" />
      <text
         xml:space="preserve"
         style="font-style:normal;font-variant:normal;font-weight:normal;font-stretch:normal;font-size:5.04222px;line-height:1.25;font-family:Calibri;-inkscape-font-specification:Calibri;letter-spacing:0px;word-spacing:0px;fill:#d0103a;fill-opacity:1;stroke:none;stroke-width:0.290897"
         x="139.43442"
         y="73.713921"
         id="text500899"
         transform="scale(0.92649228,1.0793398)"><tspan
           sodipodi:role="line"
           id="tspan500897"
           x="139.43442"
           y="73.713921"
           style="font-style:normal;font-variant:normal;font-weight:bold;font-stretch:normal;font-size:5.04222px;font-family:Calibri;-inkscape-font-specification:'Calibri Bold';fill:#d0103a;fill-opacity:1;stroke-width:0.290897">INTERNATIONAL</tspan></text>
    </g>
  </g>
</svg>
