<?xml version="1.0" encoding="UTF-8" standalone="no"?>
<svg
   xmlns:dc="http://purl.org/dc/elements/1.1/"
   xmlns:cc="http://creativecommons.org/ns#"
   xmlns:rdf="http://www.w3.org/1999/02/22-rdf-syntax-ns#"
   xmlns:svg="http://www.w3.org/2000/svg"
   xmlns="http://www.w3.org/2000/svg"
   xmlns:sodipodi="http://sodipodi.sourceforge.net/DTD/sodipodi-0.dtd"
   xmlns:inkscape="http://www.inkscape.org/namespaces/inkscape"
   width="245"
   height="64"
   viewBox="0 0 245 64"
   version="1.1"
   id="svg8"
   inkscape:version="1.0.2 (e86c8708, 2021-01-15)"
   sodipodi:docname="logo.svg">
  <defs
     id="defs2">
    <inkscape:perspective
       sodipodi:type="inkscape:persp3d"
       inkscape:vp_x="0 : 32 : 1"
       inkscape:vp_y="0 : 1000 : 0"
       inkscape:vp_z="244 : 32 : 1"
       inkscape:persp3d-origin="122 : 21.333333 : 1"
       id="perspective889" />
    <mask
       maskUnits="userSpaceOnUse"
       id="mask881">
      <path
         style="fill:#ffffff;fill-opacity:1"
         d="M 19.552215,-48.265296 136.66654,102.91865 -74.139241,100.78929 Z"
         id="path883" />
    </mask>
    <mask
       maskUnits="userSpaceOnUse"
       id="mask885">
      <path
         style="fill:#ffffff;fill-opacity:1"
         d="M 19.552215,-48.265296 136.66654,102.91865 200.8688,102.20886 73.817511,-73.107727 Z"
         id="path887" />
    </mask>
    <mask
       maskUnits="userSpaceOnUse"
       id="mask933">
      <path
         style="fill:#ffffff;fill-opacity:1"
         d="M 33.985118,-14.170772 152.02897,124.89996 -80.915348,19.873945 Z"
         id="path935" />
    </mask>
    <mask
       maskUnits="userSpaceOnUse"
       id="mask937">
      <rect
         style="fill:#ffffff;fill-opacity:1;stroke-width:0.906236"
         id="rect939"
         width="77.879883"
         height="182.41441"
         x="35.080055"
         y="11.188778"
         transform="rotate(-40.324743)" />
    </mask>
  </defs>
  <sodipodi:namedview
     id="base"
     pagecolor="#ffffff"
     bordercolor="#666666"
     borderopacity="1.0"
     inkscape:pageopacity="0.0"
     inkscape:pageshadow="2"
     inkscape:zoom="1.4088798"
     inkscape:cx="140.17545"
     inkscape:cy="-25.27836"
     inkscape:document-units="px"
     inkscape:current-layer="g870"
     inkscape:document-rotation="0"
     showgrid="true"
     units="px"
     inkscape:window-width="1245"
     inkscape:window-height="755"
     inkscape:window-x="0"
     inkscape:window-y="23"
     inkscape:window-maximized="1">
    <inkscape:grid
       type="xygrid"
       id="grid500901"
       enabled="false" />
  </sodipodi:namedview>
  <metadata
     id="metadata5">
    <rdf:RDF>
      <cc:Work
         rdf:about="">
        <dc:format>image/svg+xml</dc:format>
        <dc:type
           rdf:resource="http://purl.org/dc/dcmitype/StillImage" />
        <dc:title></dc:title>
      </cc:Work>
    </rdf:RDF>
  </metadata>
  <g
     inkscape:label="Слой 1"
     inkscape:groupmode="layer"
     id="g870"
     style="display:inline;opacity:1">
    <path
       style="fill:#4d4d4d;fill-opacity:1;stroke-width:0.596969"
       d="m 146.41292,43.47255 c 0,-11.840094 0.14899,-21.920447 0.14899,-21.920447 l 10.13503,0.130928 0.0622,1.763147 c 0,0 -0.21806,0.311847 2.18751,-1.285504 0.84375,-0.560268 1.55761,-0.82154 2.24232,-1.077923 1.12688,-0.421952 2.27667,-0.626357 4.5489,-0.61905 6.48262,0.02085 10.20186,2.307132 12.91529,7.939338 1.91257,3.969881 1.90255,11.090422 -0.0221,15.087051 -2.78139,5.775915 -9.13765,8.489263 -15.4218,7.222924 -1.81681,-0.366119 -3.91621,-1.068626 -4.66531,-1.56113 -0.74909,-0.492503 -1.68094,-0.895457 -1.68094,-0.895457 l -0.14021,16.743571 h -5.24436 -5.06562 z m 19.24198,-1.844919 c 3.58151,-1.637391 4.61556,-7.73381 1.7654,-10.408265 -0.90137,-0.845808 -2.25215,-1.695634 -3.00168,-1.888499 -3.94578,-1.015248 -7.87448,1.926621 -7.87448,5.896519 0,2.972652 0.78084,4.423195 3.1668,5.882976 2.14647,1.313259 3.87405,1.463595 5.94396,0.517269 z M 6.595785,50.031489 C 4.5837372,49.347079 1,46.969963 1,46.969963 l 3.8939842,-6.440989 c 0,0 1.7145366,1.153674 3.4290005,1.900459 1.6636881,0.72467 3.3181073,1.043117 3.9999623,1.043117 0.439216,0 1.09748,-0.07236 1.450133,-0.313794 0.717297,-0.491085 0.912138,-1.433536 0.622629,-2.151844 C 14.213208,40.554108 11.996104,39.198064 9.4688016,37.993493 4.1572717,35.461866 2.7878649,33.704532 2.7878649,29.41996 c 0,-6.997453 7.9574271,-10.776469 17.7902591,-8.448674 2.081932,0.49286 4.123754,1.235692 4.123754,1.235692 l -2.606881,6.799825 c 0,0 -1.644467,-0.263161 -3.521792,-0.810771 -2.607819,-0.760699 -4.252826,-1.11184 -5.336478,-0.616409 -1.288713,0.589181 -1.130133,1.668799 -0.603134,2.323757 0.544996,0.677326 1.916495,1.091658 4.457181,1.913483 6.12249,1.980413 8.345111,4.560496 8.341137,9.682536 -0.003,3.803814 -1.688714,6.516726 -4.948406,7.96356 -1.736366,0.770696 -3.96675,1.576143 -6.39047,1.740077 -2.317766,0.156761 -5.1019377,-0.356767 -7.49725,-1.171547 z m 33.285205,0.727143 c -3.847954,-0.933783 -8.05339,-3.58526 -10.059893,-7.700375 -1.387145,-2.844877 -1.664082,-4.160153 -1.608655,-7.640056 0.08433,-5.294294 2.500881,-9.134215 5.660849,-11.546994 0.806061,-0.615463 0.562603,-0.482445 1.46674,-0.998388 3.936116,-2.246133 9.178659,-3.299702 13.946235,-0.988413 1.906205,0.924115 2.427531,1.091526 2.427531,1.091526 v -1.793953 h 9.833252 v 29.151747 l -4.479579,-0.0063 c -3.462836,-0.0047 -5.353673,0.0063 -5.353673,0.0063 v -2.242443 c 0,0 -1.649885,1.629992 -2.690846,2.073554 -1.958639,0.83459 -4.395234,1.034577 -6.313761,0.946196 -0.685399,-0.03153 -1.264157,0.02716 -2.8282,-0.352401 z m 8.370866,-9.130221 c 3.496346,-1.598472 4.565942,-7.486466 1.886876,-10.38706 -3.356518,-3.634086 -9.760143,-2.318955 -10.977879,2.495141 -0.08362,0.330607 -0.305174,1.807278 -0.115448,3.196612 0.142477,1.043301 0.781104,2.429055 1.494371,3.227028 1.883637,2.107317 5.78508,2.349277 7.712074,1.468279 z m 46.764317,9.004743 c -4.490399,-1.130428 -9.210086,-5.167061 -10.97082,-9.383067 -1.175522,-2.814739 -0.997197,-8.951859 0.346392,-11.920983 0.508309,-1.123287 1.559869,-2.800681 2.467914,-3.862812 1.414366,-1.654367 2.905423,-2.583405 4.725437,-3.511083 4.593442,-2.34132 12.974204,-1.999539 16.352534,0.66691 0.44372,0.350219 1.98665,1.413834 3.18719,2.747883 1.07043,1.189483 1.8076,2.618473 2.20783,3.564302 0.44349,1.048061 0.88196,3.335347 0.9744,5.082867 l 0.16809,3.177315 -6.2304,0.110688 c -3.42672,0.06085 -8.16076,0.128148 -10.520075,0.149506 l -4.289669,0.03882 0.239183,1.239203 c 0.207365,1.074369 1.201191,2.286553 2.482089,3.083386 1.476873,0.918745 3.585815,1.114447 5.075242,0.831505 1.0861,-0.206323 2.77577,-1.018435 3.75481,-1.804712 l 1.78008,-1.429608 3.68903,1.956819 c 1.84706,0.979756 3.1991,2.060239 3.1991,2.060239 0,0 -2.09144,3.485951 -5.38267,5.326225 -3.66424,2.048819 -9.365477,2.855946 -13.255653,1.876634 z m 9.813107,-19.209397 c 0,0 -0.33397,-1.592685 -1.08008,-2.362717 -1.14084,-1.177421 -3.00609,-1.711405 -4.239667,-1.720004 -1.13298,-0.0076 -2.710938,0.402314 -3.817195,1.243773 -0.408873,0.311004 -1.100987,1.048834 -1.403407,1.615368 -0.338841,0.63476 -0.264555,1.383952 -0.264555,1.383952 l 5.225667,-0.0705 z m 18.04343,19.019854 c -3.192,-0.824637 -6.25524,-3.316725 -6.25524,-3.316725 0,0 0.87902,-1.679168 1.83318,-3.122422 0.95416,-1.443237 2.24355,-3.521001 2.24355,-3.521001 0,0 1.10737,0.539774 3.00429,1.491948 2.74702,1.378858 4.54057,1.619338 5.78114,1.181568 1.05635,-0.372765 1.3463,-1.058265 1.37331,-1.622345 0.0399,-0.830944 -1.18693,-1.668046 -3.237,-2.509332 -7.05199,-2.893914 -8.61694,-4.601771 -8.61694,-9.403679 0,-5.624935 3.28189,-8.48422 10.62179,-9.254004 2.26382,-0.237424 5.78259,0.329199 8.25716,1.125985 1.9005,0.611946 3.11179,1.482263 3.11179,1.482263 l -3.30613,6.145828 c 0,0 -1.60518,-0.433605 -3.2199,-0.963548 -2.24017,-0.735215 -4.31001,-0.945848 -5.3187,-0.458706 -0.54435,0.262894 -0.61074,0.813761 -0.61074,1.403082 0,0.88388 0.80215,1.401064 3.42675,2.209343 7.39991,2.278926 10.15548,5.427998 9.55321,11.390642 -0.2867,2.838368 -1.46731,4.249268 -3.13236,5.654654 -3.33215,2.812485 -10.08534,3.487699 -15.50916,2.086449 z m 99.82238,0.01525 c -4.17669,-0.966904 -7.81786,-3.097426 -9.49764,-5.55725 -1.56781,-2.295876 -2.88014,-5.614818 -2.88014,-8.249252 0,-2.440717 0.11099,-5.392855 1.59286,-8.121777 1.43477,-2.642338 4.20615,-5.084003 6.31527,-6.132574 9.33529,-4.641151 21.64487,-1.303548 25.343,6.871458 0.65011,1.437145 1.31905,3.274097 1.41843,5.502742 0.0975,2.185949 -0.36342,4.764406 -0.87072,6.121535 -2.81833,7.539467 -12.1574,11.709658 -21.42106,9.565101 z m 5.89288,-7.969395 c 1.47854,-0.136097 3.11428,-0.788776 3.98596,-1.994796 1.47802,-2.044919 1.63719,-5.508288 1.10465,-7.496786 -0.23508,-0.87782 -1.16196,-2.465557 -2.42056,-3.245784 -1.11443,-0.690863 -2.51855,-0.62963 -3.49731,-0.62963 -1.06779,0 -2.06428,0.08406 -3.19174,0.833054 -1.28435,0.853221 -2.10791,1.619933 -2.50707,2.763607 -0.93627,2.682656 -0.59198,6.967533 1.72985,8.388073 2.15061,1.315768 3.1398,1.534736 4.79622,1.382262 z M 68.251538,1.8969774 H 78.531753 V 25.666862 50.333726 H 72.721197 68.251538 Z M 184.42566,35.642544 c -0.0932,-7.92515 0.0409,-14.505802 0.0409,-14.505802 l 9.82933,0.04524 v 3.587908 l 2.06715,-1.741562 c 1.02809,-0.866156 2.83314,-1.896563 4.01327,-2.287367 1.29015,-0.427239 3.85884,-0.371695 5.89088,0.211625 1.75748,0.504506 3.50545,1.936495 3.50545,1.936495 0,0 -1.35225,2.318207 -2.0459,3.466771 -0.7791,1.290038 -2.37643,3.846039 -2.37643,3.846039 0,0 -1.69311,-0.679796 -3.50112,-0.932169 -1.15298,-0.160947 -2.44615,-0.0073 -3.07343,0.150607 -0.7843,0.197519 -2.02551,1.237065 -2.75827,2.310098 -1.21952,1.785812 -1.33218,3.148281 -1.30444,10.64056 l 0.0297,7.962737 H 184.46254 Z M 82.049744,7.7445193 82.107485,1 122.87271,1.0171881 163.90224,1 V 14.006165 H 82.107482 Z M 44.562342,1 H 63.781877 V 14.006165 H 44.562342 Z"
       id="path862"
       sodipodi:nodetypes="ccccssssssscccccssssssaccsssssssccsssscssassssssccccsccassssssssscssssssscsscsssscscssscscsscccssscsssssssccssssssssassssssssacssssssacccccccccccssscacsssscccccccccccccccc" />
  </g>
  <g
     inkscape:label="Копия Слой 3"
     inkscape:groupmode="layer"
     id="g949"
     style="display:inline;opacity:1">
    <g
       id="g947"
       style="fill:#fa823c;fill-opacity:1">
      <path
         style="fill:#fa823c;fill-opacity:1;stroke-width:0.596969"
         d="m 145.41292,42.472548 c 0,-11.840094 0.14899,-21.920447 0.14899,-21.920447 l 10.13503,0.130928 0.0622,1.763147 c 0,0 -0.21806,0.311847 2.18751,-1.285504 0.84375,-0.560268 1.55761,-0.82154 2.24232,-1.077923 1.12688,-0.421952 2.27667,-0.626357 4.5489,-0.61905 6.48262,0.02085 10.20186,2.307132 12.91529,7.939338 1.91257,3.969881 1.90255,11.090422 -0.0221,15.087051 -2.78139,5.775915 -9.13765,8.489263 -15.4218,7.222924 -1.81681,-0.366119 -3.91621,-1.068626 -4.66531,-1.56113 -0.74909,-0.492503 -1.68094,-0.895457 -1.68094,-0.895457 l -0.14021,16.743571 h -5.24436 -5.06562 z m 19.24198,-1.844919 c 3.58151,-1.637391 4.61556,-7.73381 1.7654,-10.408265 -0.90137,-0.845808 -2.25215,-1.695634 -3.00168,-1.888499 -3.94578,-1.015248 -7.87448,1.926621 -7.87448,5.896519 0,2.972652 0.78084,4.423195 3.1668,5.882976 2.14647,1.313259 3.87405,1.463595 5.94396,0.517269 z M 5.5957843,49.031487 C 3.5837365,48.347077 -6.930586e-7,45.969961 -6.930586e-7,45.969961 L 3.8939835,39.528972 c 0,0 1.7145366,1.153674 3.4290005,1.900459 1.6636881,0.72467 3.318107,1.043117 3.999962,1.043117 0.439216,0 1.09748,-0.07236 1.450133,-0.313794 0.717297,-0.491085 0.912138,-1.433536 0.622629,-2.151844 C 13.213207,39.554106 10.996103,38.198062 8.4688009,36.993491 3.157271,34.461864 1.7878642,32.70453 1.7878642,28.419958 c 0,-6.997453 7.9574275,-10.776469 17.7902588,-8.448674 2.081932,0.49286 4.123754,1.235692 4.123754,1.235692 l -2.606881,6.799825 c 0,0 -1.644467,-0.263161 -3.521792,-0.810771 -2.607819,-0.760699 -4.252826,-1.11184 -5.336478,-0.616409 -1.288713,0.589181 -1.130133,1.668799 -0.603134,2.323757 0.544996,0.677326 1.916495,1.091658 4.457181,1.913483 6.12249,1.980413 8.345111,4.560496 8.341137,9.682536 -0.003,3.803814 -1.688714,6.516726 -4.948406,7.96356 -1.736366,0.770696 -3.96675,1.576143 -6.39047,1.740077 -2.317766,0.156761 -5.1019374,-0.356767 -7.4972497,-1.171547 z M 38.880989,49.75863 c -3.847954,-0.933783 -8.05339,-3.58526 -10.059893,-7.700375 -1.387145,-2.844877 -1.664082,-4.160153 -1.608655,-7.640056 0.08433,-5.294294 2.500881,-9.134215 5.660849,-11.546994 0.806061,-0.615463 0.562603,-0.482445 1.46674,-0.998388 3.936116,-2.246133 9.178659,-3.299702 13.946235,-0.988413 1.906205,0.924115 2.427531,1.091526 2.427531,1.091526 v -1.793953 h 9.833252 v 29.151747 l -4.479579,-0.0063 c -3.462836,-0.0047 -5.353673,0.0063 -5.353673,0.0063 v -2.242443 c 0,0 -1.649885,1.629992 -2.690846,2.073554 -1.958639,0.83459 -4.395234,1.034577 -6.313761,0.946196 -0.685399,-0.03153 -1.264157,0.02716 -2.8282,-0.352401 z m 8.370866,-9.130221 c 3.496346,-1.598472 4.565942,-7.486466 1.886876,-10.38706 -3.356518,-3.634086 -9.760143,-2.318955 -10.977879,2.495141 -0.08362,0.330607 -0.305174,1.807278 -0.115448,3.196612 0.142477,1.043301 0.781104,2.429055 1.494371,3.227028 1.883637,2.107317 5.78508,2.349277 7.712074,1.468279 z m 46.764317,9.004743 c -4.490399,-1.130428 -9.210086,-5.167061 -10.97082,-9.383067 -1.175522,-2.814739 -0.997197,-8.951859 0.346392,-11.920983 0.508309,-1.123287 1.559869,-2.800681 2.467914,-3.862812 1.414366,-1.654367 2.905423,-2.583405 4.725437,-3.511083 4.593442,-2.34132 12.974205,-1.999539 16.352535,0.66691 0.44372,0.350219 1.98665,1.413834 3.18719,2.747883 1.07043,1.189483 1.8076,2.618473 2.20783,3.564302 0.44349,1.048061 0.88196,3.335347 0.9744,5.082867 l 0.16809,3.177315 -6.2304,0.110688 c -3.42672,0.06085 -8.160757,0.128148 -10.520076,0.149506 l -4.289669,0.03882 0.239183,1.239203 c 0.207365,1.074369 1.201191,2.286553 2.482089,3.083386 1.476873,0.918745 3.585815,1.114447 5.075243,0.831505 1.0861,-0.206323 2.77577,-1.018435 3.75481,-1.804712 l 1.78008,-1.429608 3.68903,1.956819 c 1.84706,0.979756 3.1991,2.060239 3.1991,2.060239 0,0 -2.09144,3.485951 -5.38267,5.326225 -3.66424,2.048819 -9.365478,2.855946 -13.255654,1.876634 z m 9.813108,-19.209397 c 0,0 -0.33397,-1.592685 -1.08008,-2.362717 -1.14084,-1.177421 -3.006095,-1.711405 -4.239668,-1.720004 -1.13298,-0.0076 -2.710938,0.402314 -3.817195,1.243773 -0.408873,0.311004 -1.100987,1.048834 -1.403407,1.615368 -0.338841,0.63476 -0.264555,1.383952 -0.264555,1.383952 l 5.225667,-0.0705 z m 18.04343,19.019854 c -3.192,-0.824637 -6.25524,-3.316725 -6.25524,-3.316725 0,0 0.87902,-1.679168 1.83318,-3.122422 0.95416,-1.443237 2.24355,-3.521001 2.24355,-3.521001 0,0 1.10737,0.539774 3.00429,1.491948 2.74702,1.378858 4.54057,1.619338 5.78114,1.181568 1.05635,-0.372765 1.3463,-1.058265 1.37331,-1.622345 0.0399,-0.830944 -1.18693,-1.668046 -3.237,-2.509332 -7.05199,-2.893914 -8.61694,-4.601771 -8.61694,-9.403679 0,-5.624935 3.28189,-8.48422 10.62179,-9.254004 2.26382,-0.237424 5.78259,0.329199 8.25716,1.125985 1.9005,0.611946 3.11179,1.482263 3.11179,1.482263 l -3.30613,6.145828 c 0,0 -1.60518,-0.433605 -3.2199,-0.963548 -2.24017,-0.735215 -4.31001,-0.945848 -5.3187,-0.458706 -0.54435,0.262894 -0.61074,0.813761 -0.61074,1.403082 0,0.88388 0.80215,1.401064 3.42675,2.209343 7.39991,2.278926 10.15548,5.427998 9.55321,11.390642 -0.2867,2.838368 -1.46731,4.249268 -3.13236,5.654654 -3.33215,2.812485 -10.08534,3.487699 -15.50916,2.086449 z m 99.82238,0.01525 c -4.17669,-0.966904 -7.81786,-3.097426 -9.49764,-5.55725 -1.56781,-2.295876 -2.88014,-5.614818 -2.88014,-8.249252 0,-2.440717 0.11099,-5.392855 1.59286,-8.121777 1.43477,-2.642338 4.20615,-5.084003 6.31527,-6.132574 9.33529,-4.641151 21.64487,-1.303548 25.343,6.871458 0.65011,1.437145 1.31905,3.274097 1.41843,5.502742 0.0975,2.185949 -0.36342,4.764406 -0.87072,6.121535 -2.81833,7.539467 -12.1574,11.709658 -21.42106,9.565101 z m 5.89288,-7.969395 c 1.47854,-0.136097 3.11428,-0.788776 3.98596,-1.994796 1.47802,-2.044919 1.63719,-5.508288 1.10465,-7.496786 -0.23508,-0.87782 -1.16196,-2.465557 -2.42056,-3.245784 -1.11443,-0.690863 -2.51855,-0.62963 -3.49731,-0.62963 -1.06779,0 -2.06428,0.08406 -3.19174,0.833054 -1.28435,0.853221 -2.10791,1.619933 -2.50707,2.763607 -0.93627,2.682656 -0.59198,6.967533 1.72985,8.388073 2.15061,1.315768 3.1398,1.534736 4.79622,1.382262 z M 67.251537,0.89697562 H 77.531752 V 24.66686 49.333724 H 71.721196 67.251537 Z M 183.42566,34.642542 c -0.0932,-7.92515 0.0409,-14.505802 0.0409,-14.505802 l 9.82933,0.04524 v 3.587908 l 2.06715,-1.741562 c 1.02809,-0.866156 2.83314,-1.896563 4.01327,-2.287367 1.29015,-0.427239 3.85884,-0.371695 5.89088,0.211625 1.75748,0.504506 3.50545,1.936495 3.50545,1.936495 0,0 -1.35225,2.318207 -2.0459,3.466771 -0.7791,1.290038 -2.37643,3.846039 -2.37643,3.846039 0,0 -1.69311,-0.679796 -3.50112,-0.932169 -1.15298,-0.160947 -2.44615,-0.0073 -3.07343,0.150607 -0.7843,0.197519 -2.02551,1.237065 -2.75827,2.310098 -1.21952,1.785812 -1.33218,3.148281 -1.30444,10.64056 l 0.0297,7.962737 H 183.46254 Z M 81.049743,6.7445175 81.107484,-1.7655329e-6 121.87271,0.01718629 162.90224,-1.7655329e-6 V 13.006163 H 81.107481 Z M 43.562341,-1.7655329e-6 H 62.781876 V 13.006163 H 43.562341 Z"
         id="path941"
         sodipodi:nodetypes="ccccssssssscccccssssssaccsssssssccsssscssassssssccccsccassssssssscssssssscsscsssscscssscscsscccssscsssssssccssssssssassssssssacssssssacccccccccccssscacsssscccccccccccccccc" />
      <text
         xml:space="preserve"
         style="font-style:normal;font-variant:normal;font-weight:normal;font-stretch:normal;font-size:8.43097px;line-height:1.25;font-family:Calibri;-inkscape-font-specification:Calibri;letter-spacing:0px;word-spacing:0px;fill:#fa823c;fill-opacity:1;stroke:none;stroke-width:0.486401"
         x="182.14888"
         y="58.746441"
         id="text945"
         transform="scale(0.91939254,1.0876747)"><tspan
           sodipodi:role="line"
           id="tspan943"
           x="182.14888"
           y="58.746441"
           style="font-style:normal;font-variant:normal;font-weight:bold;font-stretch:normal;font-size:8.43097px;font-family:Calibri;-inkscape-font-specification:'Calibri Bold';fill:#fa823c;fill-opacity:1;stroke-width:0.486401">INTERNATIONAL</tspan></text>
    </g>
  </g>
  <g
     inkscape:label="Копия Слой 2"
     inkscape:groupmode="layer"
     id="g929"
     style="display:inline">
    <g
       id="g925"
       style="fill:#3eb661;fill-opacity:1"
       mask="url(#mask937)">
      <path
         style="fill:#3eb661;fill-opacity:1;stroke-width:0.596969"
         d="m 145.41292,42.472548 c 0,-11.840094 0.14899,-21.920447 0.14899,-21.920447 l 10.13503,0.130928 0.0622,1.763147 c 0,0 -0.21806,0.311847 2.18751,-1.285504 0.84375,-0.560268 1.55761,-0.82154 2.24232,-1.077923 1.12688,-0.421952 2.27667,-0.626357 4.5489,-0.61905 6.48262,0.02085 10.20186,2.307132 12.91529,7.939338 1.91257,3.969881 1.90255,11.090422 -0.0221,15.087051 -2.78139,5.775915 -9.13765,8.489263 -15.4218,7.222924 -1.81681,-0.366119 -3.91621,-1.068626 -4.66531,-1.56113 -0.74909,-0.492503 -1.68094,-0.895457 -1.68094,-0.895457 l -0.14021,16.743571 h -5.24436 -5.06562 z m 19.24198,-1.844919 c 3.58151,-1.637391 4.61556,-7.73381 1.7654,-10.408265 -0.90137,-0.845808 -2.25215,-1.695634 -3.00168,-1.888499 -3.94578,-1.015248 -7.87448,1.926621 -7.87448,5.896519 0,2.972652 0.78084,4.423195 3.1668,5.882976 2.14647,1.313259 3.87405,1.463595 5.94396,0.517269 z M 5.5957843,49.031487 C 3.5837365,48.347077 -6.930586e-7,45.969961 -6.930586e-7,45.969961 L 3.8939835,39.528972 c 0,0 1.7145366,1.153674 3.4290005,1.900459 1.6636881,0.72467 3.318107,1.043117 3.999962,1.043117 0.439216,0 1.09748,-0.07236 1.450133,-0.313794 0.717297,-0.491085 0.912138,-1.433536 0.622629,-2.151844 C 13.213207,39.554106 10.996103,38.198062 8.4688009,36.993491 3.157271,34.461864 1.7878642,32.70453 1.7878642,28.419958 c 0,-6.997453 7.9574275,-10.776469 17.7902588,-8.448674 2.081932,0.49286 4.123754,1.235692 4.123754,1.235692 l -2.606881,6.799825 c 0,0 -1.644467,-0.263161 -3.521792,-0.810771 -2.607819,-0.760699 -4.252826,-1.11184 -5.336478,-0.616409 -1.288713,0.589181 -1.130133,1.668799 -0.603134,2.323757 0.544996,0.677326 1.916495,1.091658 4.457181,1.913483 6.12249,1.980413 8.345111,4.560496 8.341137,9.682536 -0.003,3.803814 -1.688714,6.516726 -4.948406,7.96356 -1.736366,0.770696 -3.96675,1.576143 -6.39047,1.740077 -2.317766,0.156761 -5.1019374,-0.356767 -7.4972497,-1.171547 z M 38.880989,49.75863 c -3.847954,-0.933783 -8.05339,-3.58526 -10.059893,-7.700375 -1.387145,-2.844877 -1.664082,-4.160153 -1.608655,-7.640056 0.08433,-5.294294 2.500881,-9.134215 5.660849,-11.546994 0.806061,-0.615463 0.562603,-0.482445 1.46674,-0.998388 3.936116,-2.246133 9.178659,-3.299702 13.946235,-0.988413 1.906205,0.924115 2.427531,1.091526 2.427531,1.091526 v -1.793953 h 9.833252 v 29.151747 l -4.479579,-0.0063 c -3.462836,-0.0047 -5.353673,0.0063 -5.353673,0.0063 v -2.242443 c 0,0 -1.649885,1.629992 -2.690846,2.073554 -1.958639,0.83459 -4.395234,1.034577 -6.313761,0.946196 -0.685399,-0.03153 -1.264157,0.02716 -2.8282,-0.352401 z m 8.370866,-9.130221 c 3.496346,-1.598472 4.565942,-7.486466 1.886876,-10.38706 -3.356518,-3.634086 -9.760143,-2.318955 -10.977879,2.495141 -0.08362,0.330607 -0.305174,1.807278 -0.115448,3.196612 0.142477,1.043301 0.781104,2.429055 1.494371,3.227028 1.883637,2.107317 5.78508,2.349277 7.712074,1.468279 z m 46.764317,9.004743 c -4.490399,-1.130428 -9.210086,-5.167061 -10.97082,-9.383067 -1.175522,-2.814739 -0.997197,-8.951859 0.346392,-11.920983 0.508309,-1.123287 1.559869,-2.800681 2.467914,-3.862812 1.414366,-1.654367 2.905423,-2.583405 4.725437,-3.511083 4.593442,-2.34132 12.974205,-1.999539 16.352535,0.66691 0.44372,0.350219 1.98665,1.413834 3.18719,2.747883 1.07043,1.189483 1.8076,2.618473 2.20783,3.564302 0.44349,1.048061 0.88196,3.335347 0.9744,5.082867 l 0.16809,3.177315 -6.2304,0.110688 c -3.42672,0.06085 -8.160757,0.128148 -10.520076,0.149506 l -4.289669,0.03882 0.239183,1.239203 c 0.207365,1.074369 1.201191,2.286553 2.482089,3.083386 1.476873,0.918745 3.585815,1.114447 5.075243,0.831505 1.0861,-0.206323 2.77577,-1.018435 3.75481,-1.804712 l 1.78008,-1.429608 3.68903,1.956819 c 1.84706,0.979756 3.1991,2.060239 3.1991,2.060239 0,0 -2.09144,3.485951 -5.38267,5.326225 -3.66424,2.048819 -9.365478,2.855946 -13.255654,1.876634 z m 9.813108,-19.209397 c 0,0 -0.33397,-1.592685 -1.08008,-2.362717 -1.14084,-1.177421 -3.006095,-1.711405 -4.239668,-1.720004 -1.13298,-0.0076 -2.710938,0.402314 -3.817195,1.243773 -0.408873,0.311004 -1.100987,1.048834 -1.403407,1.615368 -0.338841,0.63476 -0.264555,1.383952 -0.264555,1.383952 l 5.225667,-0.0705 z m 18.04343,19.019854 c -3.192,-0.824637 -6.25524,-3.316725 -6.25524,-3.316725 0,0 0.87902,-1.679168 1.83318,-3.122422 0.95416,-1.443237 2.24355,-3.521001 2.24355,-3.521001 0,0 1.10737,0.539774 3.00429,1.491948 2.74702,1.378858 4.54057,1.619338 5.78114,1.181568 1.05635,-0.372765 1.3463,-1.058265 1.37331,-1.622345 0.0399,-0.830944 -1.18693,-1.668046 -3.237,-2.509332 -7.05199,-2.893914 -8.61694,-4.601771 -8.61694,-9.403679 0,-5.624935 3.28189,-8.48422 10.62179,-9.254004 2.26382,-0.237424 5.78259,0.329199 8.25716,1.125985 1.9005,0.611946 3.11179,1.482263 3.11179,1.482263 l -3.30613,6.145828 c 0,0 -1.60518,-0.433605 -3.2199,-0.963548 -2.24017,-0.735215 -4.31001,-0.945848 -5.3187,-0.458706 -0.54435,0.262894 -0.61074,0.813761 -0.61074,1.403082 0,0.88388 0.80215,1.401064 3.42675,2.209343 7.39991,2.278926 10.15548,5.427998 9.55321,11.390642 -0.2867,2.838368 -1.46731,4.249268 -3.13236,5.654654 -3.33215,2.812485 -10.08534,3.487699 -15.50916,2.086449 z m 99.82238,0.01525 c -4.17669,-0.966904 -7.81786,-3.097426 -9.49764,-5.55725 -1.56781,-2.295876 -2.88014,-5.614818 -2.88014,-8.249252 0,-2.440717 0.11099,-5.392855 1.59286,-8.121777 1.43477,-2.642338 4.20615,-5.084003 6.31527,-6.132574 9.33529,-4.641151 21.64487,-1.303548 25.343,6.871458 0.65011,1.437145 1.31905,3.274097 1.41843,5.502742 0.0975,2.185949 -0.36342,4.764406 -0.87072,6.121535 -2.81833,7.539467 -12.1574,11.709658 -21.42106,9.565101 z m 5.89288,-7.969395 c 1.47854,-0.136097 3.11428,-0.788776 3.98596,-1.994796 1.47802,-2.044919 1.63719,-5.508288 1.10465,-7.496786 -0.23508,-0.87782 -1.16196,-2.465557 -2.42056,-3.245784 -1.11443,-0.690863 -2.51855,-0.62963 -3.49731,-0.62963 -1.06779,0 -2.06428,0.08406 -3.19174,0.833054 -1.28435,0.853221 -2.10791,1.619933 -2.50707,2.763607 -0.93627,2.682656 -0.59198,6.967533 1.72985,8.388073 2.15061,1.315768 3.1398,1.534736 4.79622,1.382262 z M 67.251537,0.89697562 H 77.531752 V 24.66686 49.333724 H 71.721196 67.251537 Z M 183.42566,34.642542 c -0.0932,-7.92515 0.0409,-14.505802 0.0409,-14.505802 l 9.82933,0.04524 v 3.587908 l 2.06715,-1.741562 c 1.02809,-0.866156 2.83314,-1.896563 4.01327,-2.287367 1.29015,-0.427239 3.85884,-0.371695 5.89088,0.211625 1.75748,0.504506 3.50545,1.936495 3.50545,1.936495 0,0 -1.35225,2.318207 -2.0459,3.466771 -0.7791,1.290038 -2.37643,3.846039 -2.37643,3.846039 0,0 -1.69311,-0.679796 -3.50112,-0.932169 -1.15298,-0.160947 -2.44615,-0.0073 -3.07343,0.150607 -0.7843,0.197519 -2.02551,1.237065 -2.75827,2.310098 -1.21952,1.785812 -1.33218,3.148281 -1.30444,10.64056 l 0.0297,7.962737 H 183.46254 Z M 81.049743,6.7445175 81.107484,-1.7655329e-6 121.87271,0.01718629 162.90224,-1.7655329e-6 V 13.006163 H 81.107481 Z M 43.562341,-1.7655329e-6 H 62.781876 V 13.006163 H 43.562341 Z"
         id="path919"
         sodipodi:nodetypes="ccccssssssscccccssssssaccsssssssccsssscssassssssccccsccassssssssscssssssscsscsssscscssscscsscccssscsssssssccssssssssassssssssacssssssacccccccccccssscacsssscccccccccccccccc" />
      <text
         xml:space="preserve"
         style="font-style:normal;font-variant:normal;font-weight:normal;font-stretch:normal;font-size:8.43097px;line-height:1.25;font-family:Calibri;-inkscape-font-specification:Calibri;letter-spacing:0px;word-spacing:0px;fill:#3eb661;fill-opacity:1;stroke:none;stroke-width:0.486401"
         x="182.14888"
         y="58.746441"
         id="text923"
         transform="scale(0.91939254,1.0876747)"><tspan
           sodipodi:role="line"
           id="tspan921"
           x="182.14888"
           y="58.746441"
           style="font-style:normal;font-variant:normal;font-weight:bold;font-stretch:normal;font-size:8.43097px;font-family:Calibri;-inkscape-font-specification:'Calibri Bold';fill:#3eb661;fill-opacity:1;stroke-width:0.486401">INTERNATIONAL</tspan></text>
    </g>
  </g>
  <g
     inkscape:label="Копия Слой 1"
     inkscape:groupmode="layer"
     id="g917"
     style="display:inline">
    <g
       id="g913"
       style="fill:#187aba;fill-opacity:1"
       mask="url(#mask933)">
      <path
         style="fill:#187aba;fill-opacity:1;stroke-width:0.596969"
         d="m 145.41292,42.472548 c 0,-11.840094 0.14899,-21.920447 0.14899,-21.920447 l 10.13503,0.130928 0.0622,1.763147 c 0,0 -0.21806,0.311847 2.18751,-1.285504 0.84375,-0.560268 1.55761,-0.82154 2.24232,-1.077923 1.12688,-0.421952 2.27667,-0.626357 4.5489,-0.61905 6.48262,0.02085 10.20186,2.307132 12.91529,7.939338 1.91257,3.969881 1.90255,11.090422 -0.0221,15.087051 -2.78139,5.775915 -9.13765,8.489263 -15.4218,7.222924 -1.81681,-0.366119 -3.91621,-1.068626 -4.66531,-1.56113 -0.74909,-0.492503 -1.68094,-0.895457 -1.68094,-0.895457 l -0.14021,16.743571 h -5.24436 -5.06562 z m 19.24198,-1.844919 c 3.58151,-1.637391 4.61556,-7.73381 1.7654,-10.408265 -0.90137,-0.845808 -2.25215,-1.695634 -3.00168,-1.888499 -3.94578,-1.015248 -7.87448,1.926621 -7.87448,5.896519 0,2.972652 0.78084,4.423195 3.1668,5.882976 2.14647,1.313259 3.87405,1.463595 5.94396,0.517269 z M 5.5957843,49.031487 C 3.5837365,48.347077 -6.930586e-7,45.969961 -6.930586e-7,45.969961 L 3.8939835,39.528972 c 0,0 1.7145366,1.153674 3.4290005,1.900459 1.6636881,0.72467 3.318107,1.043117 3.999962,1.043117 0.439216,0 1.09748,-0.07236 1.450133,-0.313794 0.717297,-0.491085 0.912138,-1.433536 0.622629,-2.151844 C 13.213207,39.554106 10.996103,38.198062 8.4688009,36.993491 3.157271,34.461864 1.7878642,32.70453 1.7878642,28.419958 c 0,-6.997453 7.9574275,-10.776469 17.7902588,-8.448674 2.081932,0.49286 4.123754,1.235692 4.123754,1.235692 l -2.606881,6.799825 c 0,0 -1.644467,-0.263161 -3.521792,-0.810771 -2.607819,-0.760699 -4.252826,-1.11184 -5.336478,-0.616409 -1.288713,0.589181 -1.130133,1.668799 -0.603134,2.323757 0.544996,0.677326 1.916495,1.091658 4.457181,1.913483 6.12249,1.980413 8.345111,4.560496 8.341137,9.682536 -0.003,3.803814 -1.688714,6.516726 -4.948406,7.96356 -1.736366,0.770696 -3.96675,1.576143 -6.39047,1.740077 -2.317766,0.156761 -5.1019374,-0.356767 -7.4972497,-1.171547 z M 38.880989,49.75863 c -3.847954,-0.933783 -8.05339,-3.58526 -10.059893,-7.700375 -1.387145,-2.844877 -1.664082,-4.160153 -1.608655,-7.640056 0.08433,-5.294294 2.500881,-9.134215 5.660849,-11.546994 0.806061,-0.615463 0.562603,-0.482445 1.46674,-0.998388 3.936116,-2.246133 9.178659,-3.299702 13.946235,-0.988413 1.906205,0.924115 2.427531,1.091526 2.427531,1.091526 v -1.793953 h 9.833252 v 29.151747 l -4.479579,-0.0063 c -3.462836,-0.0047 -5.353673,0.0063 -5.353673,0.0063 v -2.242443 c 0,0 -1.649885,1.629992 -2.690846,2.073554 -1.958639,0.83459 -4.395234,1.034577 -6.313761,0.946196 -0.685399,-0.03153 -1.264157,0.02716 -2.8282,-0.352401 z m 8.370866,-9.130221 c 3.496346,-1.598472 4.565942,-7.486466 1.886876,-10.38706 -3.356518,-3.634086 -9.760143,-2.318955 -10.977879,2.495141 -0.08362,0.330607 -0.305174,1.807278 -0.115448,3.196612 0.142477,1.043301 0.781104,2.429055 1.494371,3.227028 1.883637,2.107317 5.78508,2.349277 7.712074,1.468279 z m 46.764317,9.004743 c -4.490399,-1.130428 -9.210086,-5.167061 -10.97082,-9.383067 -1.175522,-2.814739 -0.997197,-8.951859 0.346392,-11.920983 0.508309,-1.123287 1.559869,-2.800681 2.467914,-3.862812 1.414366,-1.654367 2.905423,-2.583405 4.725437,-3.511083 4.593442,-2.34132 12.974205,-1.999539 16.352535,0.66691 0.44372,0.350219 1.98665,1.413834 3.18719,2.747883 1.07043,1.189483 1.8076,2.618473 2.20783,3.564302 0.44349,1.048061 0.88196,3.335347 0.9744,5.082867 l 0.16809,3.177315 -6.2304,0.110688 c -3.42672,0.06085 -8.160757,0.128148 -10.520076,0.149506 l -4.289669,0.03882 0.239183,1.239203 c 0.207365,1.074369 1.201191,2.286553 2.482089,3.083386 1.476873,0.918745 3.585815,1.114447 5.075243,0.831505 1.0861,-0.206323 2.77577,-1.018435 3.75481,-1.804712 l 1.78008,-1.429608 3.68903,1.956819 c 1.84706,0.979756 3.1991,2.060239 3.1991,2.060239 0,0 -2.09144,3.485951 -5.38267,5.326225 -3.66424,2.048819 -9.365478,2.855946 -13.255654,1.876634 z m 9.813108,-19.209397 c 0,0 -0.33397,-1.592685 -1.08008,-2.362717 -1.14084,-1.177421 -3.006095,-1.711405 -4.239668,-1.720004 -1.13298,-0.0076 -2.710938,0.402314 -3.817195,1.243773 -0.408873,0.311004 -1.100987,1.048834 -1.403407,1.615368 -0.338841,0.63476 -0.264555,1.383952 -0.264555,1.383952 l 5.225667,-0.0705 z m 18.04343,19.019854 c -3.192,-0.824637 -6.25524,-3.316725 -6.25524,-3.316725 0,0 0.87902,-1.679168 1.83318,-3.122422 0.95416,-1.443237 2.24355,-3.521001 2.24355,-3.521001 0,0 1.10737,0.539774 3.00429,1.491948 2.74702,1.378858 4.54057,1.619338 5.78114,1.181568 1.05635,-0.372765 1.3463,-1.058265 1.37331,-1.622345 0.0399,-0.830944 -1.18693,-1.668046 -3.237,-2.509332 -7.05199,-2.893914 -8.61694,-4.601771 -8.61694,-9.403679 0,-5.624935 3.28189,-8.48422 10.62179,-9.254004 2.26382,-0.237424 5.78259,0.329199 8.25716,1.125985 1.9005,0.611946 3.11179,1.482263 3.11179,1.482263 l -3.30613,6.145828 c 0,0 -1.60518,-0.433605 -3.2199,-0.963548 -2.24017,-0.735215 -4.31001,-0.945848 -5.3187,-0.458706 -0.54435,0.262894 -0.61074,0.813761 -0.61074,1.403082 0,0.88388 0.80215,1.401064 3.42675,2.209343 7.39991,2.278926 10.15548,5.427998 9.55321,11.390642 -0.2867,2.838368 -1.46731,4.249268 -3.13236,5.654654 -3.33215,2.812485 -10.08534,3.487699 -15.50916,2.086449 z m 99.82238,0.01525 c -4.17669,-0.966904 -7.81786,-3.097426 -9.49764,-5.55725 -1.56781,-2.295876 -2.88014,-5.614818 -2.88014,-8.249252 0,-2.440717 0.11099,-5.392855 1.59286,-8.121777 1.43477,-2.642338 4.20615,-5.084003 6.31527,-6.132574 9.33529,-4.641151 21.64487,-1.303548 25.343,6.871458 0.65011,1.437145 1.31905,3.274097 1.41843,5.502742 0.0975,2.185949 -0.36342,4.764406 -0.87072,6.121535 -2.81833,7.539467 -12.1574,11.709658 -21.42106,9.565101 z m 5.89288,-7.969395 c 1.47854,-0.136097 3.11428,-0.788776 3.98596,-1.994796 1.47802,-2.044919 1.63719,-5.508288 1.10465,-7.496786 -0.23508,-0.87782 -1.16196,-2.465557 -2.42056,-3.245784 -1.11443,-0.690863 -2.51855,-0.62963 -3.49731,-0.62963 -1.06779,0 -2.06428,0.08406 -3.19174,0.833054 -1.28435,0.853221 -2.10791,1.619933 -2.50707,2.763607 -0.93627,2.682656 -0.59198,6.967533 1.72985,8.388073 2.15061,1.315768 3.1398,1.534736 4.79622,1.382262 z M 67.251537,0.89697562 H 77.531752 V 24.66686 49.333724 H 71.721196 67.251537 Z M 183.42566,34.642542 c -0.0932,-7.92515 0.0409,-14.505802 0.0409,-14.505802 l 9.82933,0.04524 v 3.587908 l 2.06715,-1.741562 c 1.02809,-0.866156 2.83314,-1.896563 4.01327,-2.287367 1.29015,-0.427239 3.85884,-0.371695 5.89088,0.211625 1.75748,0.504506 3.50545,1.936495 3.50545,1.936495 0,0 -1.35225,2.318207 -2.0459,3.466771 -0.7791,1.290038 -2.37643,3.846039 -2.37643,3.846039 0,0 -1.69311,-0.679796 -3.50112,-0.932169 -1.15298,-0.160947 -2.44615,-0.0073 -3.07343,0.150607 -0.7843,0.197519 -2.02551,1.237065 -2.75827,2.310098 -1.21952,1.785812 -1.33218,3.148281 -1.30444,10.64056 l 0.0297,7.962737 H 183.46254 Z M 81.049743,6.7445175 81.107484,-1.7655329e-6 121.87271,0.01718629 162.90224,-1.7655329e-6 V 13.006163 H 81.107481 Z M 43.562341,-1.7655329e-6 H 62.781876 V 13.006163 H 43.562341 Z"
         id="path907"
         sodipodi:nodetypes="ccccssssssscccccssssssaccsssssssccsssscssassssssccccsccassssssssscssssssscsscsssscscssscscsscccssscsssssssccssssssssassssssssacssssssacccccccccccssscacsssscccccccccccccccc" />
      <text
         xml:space="preserve"
         style="font-style:normal;font-variant:normal;font-weight:normal;font-stretch:normal;font-size:8.43097px;line-height:1.25;font-family:Calibri;-inkscape-font-specification:Calibri;letter-spacing:0px;word-spacing:0px;fill:#187aba;fill-opacity:1;stroke:none;stroke-width:0.486401"
         x="182.14888"
         y="58.746441"
         id="text911"
         transform="scale(0.91939254,1.0876747)"><tspan
           sodipodi:role="line"
           id="tspan909"
           x="182.14888"
           y="58.746441"
           style="font-style:normal;font-variant:normal;font-weight:bold;font-stretch:normal;font-size:8.43097px;font-family:Calibri;-inkscape-font-specification:'Calibri Bold';fill:#187aba;fill-opacity:1;stroke-width:0.486401">INTERNATIONAL</tspan></text>
    </g>
  </g>
</svg>
