<svg xmlns="http://www.w3.org/2000/svg" width="245" height="64"><defs><mask maskUnits="userSpaceOnUse" id="b"><path style="fill:#fff;fill-opacity:1" d="M33.985-14.17 152.03 124.9-80.915 19.874z"/></mask><mask maskUnits="userSpaceOnUse" id="a"><path style="fill:#fff;fill-opacity:1;stroke-width:.906236" transform="rotate(-40.325)" d="M35.08 11.189h77.88v182.414H35.08z"/></mask></defs><g style="display:inline;opacity:1"><path style="fill:#4d4d4d;fill-opacity:1;stroke-width:.596969" d="M146.413 43.473c0-11.84.149-21.92.149-21.92l10.135.13.062 1.763s-.218.312 2.188-1.285c.843-.56 1.557-.822 2.242-1.078 1.127-.422 2.277-.627 4.549-.62 6.482.022 10.202 2.308 12.915 7.94 1.913 3.97 1.903 11.09-.022 15.087-2.781 5.776-9.138 8.49-15.422 7.223-1.817-.366-3.916-1.069-4.665-1.561-.75-.493-1.681-.896-1.681-.896L156.723 65h-10.31zm19.242-1.845c3.581-1.638 4.615-7.734 1.765-10.409-.901-.845-2.252-1.695-3.001-1.888-3.946-1.015-7.875 1.926-7.875 5.896 0 2.973.781 4.424 3.167 5.883 2.146 1.314 3.874 1.464 5.944.518zM6.595 50.03C4.585 49.347 1 46.97 1 46.97l3.894-6.441s1.715 1.154 3.429 1.9c1.664.725 3.318 1.044 4 1.044.44 0 1.097-.073 1.45-.314.717-.491.912-1.434.623-2.152-.183-.453-2.4-1.809-4.927-3.014-5.312-2.531-6.681-4.288-6.681-8.573 0-6.997 7.957-10.777 17.79-8.449 2.082.493 4.124 1.236 4.124 1.236l-2.607 6.8s-1.644-.263-3.522-.811c-2.608-.76-4.253-1.112-5.336-.616-1.289.589-1.13 1.668-.603 2.323.545.678 1.916 1.092 4.457 1.914 6.122 1.98 8.345 4.56 8.34 9.682-.002 3.804-1.688 6.517-4.947 7.964-1.737.77-3.967 1.576-6.391 1.74-2.318.157-5.102-.357-7.497-1.172zm33.286.728c-3.848-.934-8.053-3.586-10.06-7.7-1.387-2.846-1.664-4.16-1.609-7.64.085-5.295 2.501-9.135 5.661-11.548.806-.615.563-.482 1.467-.998 3.936-2.246 9.179-3.3 13.946-.989 1.906.925 2.428 1.092 2.428 1.092v-1.794h9.833v29.152l-4.48-.007c-3.462-.004-5.353.007-5.353.007V48.09s-1.65 1.63-2.691 2.074c-1.959.834-4.395 1.034-6.314.946-.685-.031-1.264.027-2.828-.352zm8.37-9.13c3.497-1.6 4.567-7.487 1.888-10.388-3.357-3.634-9.76-2.319-10.978 2.495-.084.331-.305 1.808-.116 3.197.143 1.043.782 2.43 1.495 3.227 1.883 2.107 5.785 2.35 7.712 1.468zm46.765 9.004c-4.49-1.13-9.21-5.167-10.97-9.383-1.176-2.815-.998-8.952.346-11.92.508-1.124 1.56-2.802 2.468-3.864 1.414-1.654 2.905-2.583 4.725-3.51 4.594-2.342 12.974-2 16.353.666.443.35 1.986 1.414 3.187 2.748 1.07 1.19 1.807 2.618 2.208 3.564.443 1.048.882 3.336.974 5.083l.168 3.177-6.23.111c-3.427.061-8.161.128-10.52.15l-4.29.039.24 1.239c.207 1.074 1.2 2.286 2.481 3.083 1.477.919 3.586 1.115 5.076.832 1.086-.207 2.775-1.019 3.754-1.805l1.78-1.43 3.69 1.957c1.846.98 3.199 2.06 3.199 2.06s-2.092 3.486-5.383 5.327c-3.664 2.048-9.366 2.856-13.256 1.876zm9.813-19.21s-.334-1.592-1.08-2.362c-1.14-1.177-3.006-1.711-4.24-1.72-1.132-.008-2.71.402-3.817 1.244-.409.31-1.1 1.049-1.403 1.615-.339.635-.265 1.384-.265 1.384l5.226-.07zm18.044 19.02c-3.192-.824-6.256-3.316-6.256-3.316s.88-1.68 1.834-3.123a180.2 180.2 0 0 0 2.243-3.52s1.108.54 3.004 1.491c2.748 1.38 4.541 1.62 5.782 1.182 1.056-.373 1.346-1.058 1.373-1.622.04-.831-1.187-1.668-3.237-2.51-7.052-2.894-8.617-4.601-8.617-9.403 0-5.625 3.282-8.485 10.622-9.254 2.264-.238 5.782.329 8.257 1.126 1.9.612 3.112 1.482 3.112 1.482l-3.306 6.146s-1.606-.434-3.22-.964c-2.24-.735-4.31-.946-5.319-.459-.544.263-.61.814-.61 1.404 0 .883.801 1.4 3.426 2.209 7.4 2.279 10.156 5.428 9.553 11.39-.286 2.839-1.467 4.25-3.132 5.655-3.332 2.813-10.085 3.488-15.51 2.087zm99.822.016c-4.177-.967-7.818-3.098-9.498-5.557-1.567-2.296-2.88-5.615-2.88-8.25 0-2.44.111-5.392 1.593-8.121 1.435-2.643 4.206-5.084 6.315-6.133 9.336-4.641 21.645-1.304 25.343 6.871.65 1.438 1.32 3.275 1.419 5.503.097 2.186-.364 4.765-.87 6.122-2.82 7.54-12.158 11.71-21.422 9.565zm5.893-7.97c1.479-.136 3.114-.788 3.986-1.994 1.478-2.045 1.637-5.509 1.105-7.497-.236-.878-1.162-2.466-2.421-3.246-1.114-.69-2.519-.63-3.497-.63-1.068 0-2.065.085-3.192.834-1.284.853-2.108 1.62-2.507 2.763-.936 2.683-.592 6.968 1.73 8.388 2.15 1.316 3.14 1.535 4.796 1.382zM68.252 1.897h10.28v48.437h-10.28zm116.174 33.746c-.094-7.926.04-14.506.04-14.506l9.83.045v3.588l2.067-1.742c1.028-.866 2.833-1.896 4.013-2.287 1.29-.427 3.86-.372 5.891.212 1.758.504 3.506 1.936 3.506 1.936s-1.353 2.318-2.046 3.467c-.78 1.29-2.377 3.846-2.377 3.846s-1.693-.68-3.5-.932c-1.154-.161-2.447-.008-3.074.15-.785.198-2.026 1.237-2.759 2.31-1.219 1.786-1.332 3.149-1.304 10.641l.03 7.963h-10.28zM82.05 7.745 82.107 1l40.766.017L163.903 1v13.006H82.106zM44.562 1h19.22v13.006h-19.22z"/></g><g style="display:inline;opacity:1"><g style="fill:#fa823c;fill-opacity:1"><path style="fill:#fa823c;fill-opacity:1;stroke-width:.596969" d="M145.413 42.473c0-11.84.149-21.92.149-21.92l10.135.13.062 1.763s-.218.312 2.188-1.285c.843-.56 1.557-.822 2.242-1.078 1.127-.422 2.277-.627 4.549-.62 6.482.022 10.202 2.308 12.915 7.94 1.913 3.97 1.903 11.09-.022 15.087-2.781 5.776-9.138 8.49-15.422 7.223-1.817-.366-3.916-1.069-4.665-1.561-.75-.493-1.681-.896-1.681-.896L155.723 64h-10.31zm19.242-1.845c3.581-1.638 4.615-7.734 1.765-10.409-.901-.845-2.252-1.695-3.001-1.888-3.946-1.015-7.875 1.926-7.875 5.896 0 2.973.781 4.424 3.167 5.883 2.146 1.314 3.874 1.464 5.944.518zM5.595 49.03C3.585 48.347 0 45.97 0 45.97l3.894-6.441s1.715 1.154 3.429 1.9c1.664.725 3.318 1.044 4 1.044.44 0 1.097-.073 1.45-.314.717-.491.912-1.434.623-2.152-.183-.453-2.4-1.809-4.927-3.014-5.312-2.531-6.681-4.288-6.681-8.573 0-6.997 7.957-10.777 17.79-8.449 2.082.493 4.124 1.236 4.124 1.236l-2.607 6.8s-1.644-.263-3.522-.811c-2.608-.76-4.253-1.112-5.336-.616-1.289.589-1.13 1.668-.603 2.323.545.678 1.916 1.092 4.457 1.914 6.122 1.98 8.345 4.56 8.34 9.682-.002 3.804-1.688 6.517-4.947 7.964-1.737.77-3.967 1.576-6.391 1.74-2.318.157-5.102-.357-7.497-1.172zm33.286.728c-3.848-.934-8.053-3.586-10.06-7.7-1.387-2.846-1.664-4.16-1.609-7.64.085-5.295 2.501-9.135 5.661-11.548.806-.615.563-.482 1.467-.998 3.936-2.246 9.179-3.3 13.946-.989 1.906.925 2.428 1.092 2.428 1.092v-1.794h9.833v29.152l-4.48-.007c-3.462-.004-5.353.007-5.353.007V47.09s-1.65 1.63-2.691 2.074c-1.959.834-4.395 1.034-6.314.946-.685-.031-1.264.027-2.828-.352zm8.37-9.13c3.497-1.6 4.567-7.487 1.888-10.388-3.357-3.634-9.76-2.319-10.978 2.495-.084.331-.305 1.808-.116 3.197.143 1.043.782 2.43 1.495 3.227 1.883 2.107 5.785 2.35 7.712 1.468zm46.765 9.004c-4.49-1.13-9.21-5.167-10.97-9.383-1.176-2.815-.998-8.952.346-11.92.508-1.124 1.56-2.802 2.468-3.864 1.414-1.654 2.905-2.583 4.725-3.51 4.594-2.342 12.974-2 16.353.666.443.35 1.986 1.414 3.187 2.748 1.07 1.19 1.807 2.618 2.208 3.564.443 1.048.882 3.336.974 5.083l.168 3.177-6.23.111c-3.427.061-8.161.128-10.52.15l-4.29.038.24 1.24c.207 1.074 1.2 2.286 2.481 3.083 1.477.919 3.586 1.115 5.076.832 1.086-.207 2.775-1.019 3.754-1.805l1.78-1.43 3.69 1.957c1.846.98 3.199 2.06 3.199 2.06s-2.092 3.486-5.383 5.327c-3.664 2.048-9.366 2.856-13.256 1.876zm9.813-19.21s-.334-1.592-1.08-2.362c-1.14-1.177-3.006-1.711-4.24-1.72-1.132-.008-2.71.402-3.817 1.244-.409.31-1.1 1.049-1.403 1.615-.339.635-.265 1.384-.265 1.384l5.226-.07zm18.044 19.02c-3.192-.824-6.256-3.316-6.256-3.316s.88-1.68 1.834-3.123a180.2 180.2 0 0 0 2.243-3.52s1.108.54 3.004 1.491c2.748 1.38 4.541 1.62 5.782 1.182 1.056-.373 1.346-1.058 1.373-1.622.04-.831-1.187-1.668-3.237-2.51-7.052-2.894-8.617-4.601-8.617-9.403 0-5.625 3.282-8.485 10.622-9.254 2.264-.238 5.782.329 8.257 1.126 1.9.612 3.112 1.482 3.112 1.482l-3.306 6.146s-1.606-.434-3.22-.964c-2.24-.735-4.31-.946-5.319-.459-.544.263-.61.814-.61 1.404 0 .883.801 1.4 3.426 2.209 7.4 2.279 10.156 5.428 9.553 11.39-.286 2.839-1.467 4.25-3.132 5.655-3.332 2.813-10.085 3.488-15.51 2.087zm99.822.016c-4.177-.967-7.818-3.098-9.498-5.557-1.567-2.296-2.88-5.615-2.88-8.25 0-2.44.111-5.392 1.593-8.121 1.435-2.643 4.206-5.084 6.315-6.133 9.336-4.641 21.645-1.304 25.343 6.871.65 1.438 1.32 3.275 1.419 5.503.097 2.186-.364 4.765-.87 6.122-2.82 7.54-12.158 11.71-21.422 9.565zm5.893-7.97c1.479-.136 3.114-.788 3.986-1.994 1.478-2.045 1.637-5.509 1.105-7.497-.236-.878-1.162-2.466-2.421-3.246-1.114-.69-2.519-.63-3.497-.63-1.068 0-2.065.085-3.192.834-1.284.853-2.108 1.62-2.507 2.763-.936 2.683-.592 6.968 1.73 8.388 2.15 1.316 3.14 1.535 4.796 1.382zM67.252.897h10.28v48.437h-10.28zm116.174 33.746c-.094-7.926.04-14.506.04-14.506l9.83.045v3.588l2.067-1.742c1.028-.866 2.833-1.896 4.013-2.287 1.29-.427 3.86-.372 5.891.212 1.758.504 3.506 1.936 3.506 1.936s-1.353 2.318-2.046 3.467c-.78 1.29-2.377 3.846-2.377 3.846s-1.693-.68-3.5-.932c-1.154-.161-2.447-.008-3.074.15-.785.198-2.026 1.237-2.759 2.31-1.219 1.786-1.332 3.149-1.304 10.641l.03 7.963h-10.28zM81.05 6.745 81.107 0l40.766.017L162.903 0v13.006H81.106zM43.562 0h19.22v13.006h-19.22z"/><text xml:space="preserve" style="font-style:normal;font-variant:normal;font-weight:400;font-stretch:normal;font-size:8.43097px;line-height:1.25;font-family:Calibri;-inkscape-font-specification:Calibri;letter-spacing:0;word-spacing:0;fill:#fa823c;fill-opacity:1;stroke:none;stroke-width:.486401" x="182.149" y="58.746" transform="scale(.9194 1.08767)"><tspan x="182.149" y="58.746" style="font-style:normal;font-variant:normal;font-weight:700;font-stretch:normal;font-size:8.43097px;font-family:Calibri;-inkscape-font-specification:'Calibri Bold';fill:#fa823c;fill-opacity:1;stroke-width:.486401">INTERNATIONAL</tspan></text></g></g><g style="display:inline"><g style="fill:#3eb661;fill-opacity:1" mask="url(#a)"><path style="fill:#3eb661;fill-opacity:1;stroke-width:.596969" d="M145.413 42.473c0-11.84.149-21.92.149-21.92l10.135.13.062 1.763s-.218.312 2.188-1.285c.843-.56 1.557-.822 2.242-1.078 1.127-.422 2.277-.627 4.549-.62 6.482.022 10.202 2.308 12.915 7.94 1.913 3.97 1.903 11.09-.022 15.087-2.781 5.776-9.138 8.49-15.422 7.223-1.817-.366-3.916-1.069-4.665-1.561-.75-.493-1.681-.896-1.681-.896L155.723 64h-10.31zm19.242-1.845c3.581-1.638 4.615-7.734 1.765-10.409-.901-.845-2.252-1.695-3.001-1.888-3.946-1.015-7.875 1.926-7.875 5.896 0 2.973.781 4.424 3.167 5.883 2.146 1.314 3.874 1.464 5.944.518zM5.595 49.03C3.585 48.347 0 45.97 0 45.97l3.894-6.441s1.715 1.154 3.429 1.9c1.664.725 3.318 1.044 4 1.044.44 0 1.097-.073 1.45-.314.717-.491.912-1.434.623-2.152-.183-.453-2.4-1.809-4.927-3.014-5.312-2.531-6.681-4.288-6.681-8.573 0-6.997 7.957-10.777 17.79-8.449 2.082.493 4.124 1.236 4.124 1.236l-2.607 6.8s-1.644-.263-3.522-.811c-2.608-.76-4.253-1.112-5.336-.616-1.289.589-1.13 1.668-.603 2.323.545.678 1.916 1.092 4.457 1.914 6.122 1.98 8.345 4.56 8.34 9.682-.002 3.804-1.688 6.517-4.947 7.964-1.737.77-3.967 1.576-6.391 1.74-2.318.157-5.102-.357-7.497-1.172zm33.286.728c-3.848-.934-8.053-3.586-10.06-7.7-1.387-2.846-1.664-4.16-1.609-7.64.085-5.295 2.501-9.135 5.661-11.548.806-.615.563-.482 1.467-.998 3.936-2.246 9.179-3.3 13.946-.989 1.906.925 2.428 1.092 2.428 1.092v-1.794h9.833v29.152l-4.48-.007c-3.462-.004-5.353.007-5.353.007V47.09s-1.65 1.63-2.691 2.074c-1.959.834-4.395 1.034-6.314.946-.685-.031-1.264.027-2.828-.352zm8.37-9.13c3.497-1.6 4.567-7.487 1.888-10.388-3.357-3.634-9.76-2.319-10.978 2.495-.084.331-.305 1.808-.116 3.197.143 1.043.782 2.43 1.495 3.227 1.883 2.107 5.785 2.35 7.712 1.468zm46.765 9.004c-4.49-1.13-9.21-5.167-10.97-9.383-1.176-2.815-.998-8.952.346-11.92.508-1.124 1.56-2.802 2.468-3.864 1.414-1.654 2.905-2.583 4.725-3.51 4.594-2.342 12.974-2 16.353.666.443.35 1.986 1.414 3.187 2.748 1.07 1.19 1.807 2.618 2.208 3.564.443 1.048.882 3.336.974 5.083l.168 3.177-6.23.111c-3.427.061-8.161.128-10.52.15l-4.29.038.24 1.24c.207 1.074 1.2 2.286 2.481 3.083 1.477.919 3.586 1.115 5.076.832 1.086-.207 2.775-1.019 3.754-1.805l1.78-1.43 3.69 1.957c1.846.98 3.199 2.06 3.199 2.06s-2.092 3.486-5.383 5.327c-3.664 2.048-9.366 2.856-13.256 1.876zm9.813-19.21s-.334-1.592-1.08-2.362c-1.14-1.177-3.006-1.711-4.24-1.72-1.132-.008-2.71.402-3.817 1.244-.409.31-1.1 1.049-1.403 1.615-.339.635-.265 1.384-.265 1.384l5.226-.07zm18.044 19.02c-3.192-.824-6.256-3.316-6.256-3.316s.88-1.68 1.834-3.123a180.2 180.2 0 0 0 2.243-3.52s1.108.54 3.004 1.491c2.748 1.38 4.541 1.62 5.782 1.182 1.056-.373 1.346-1.058 1.373-1.622.04-.831-1.187-1.668-3.237-2.51-7.052-2.894-8.617-4.601-8.617-9.403 0-5.625 3.282-8.485 10.622-9.254 2.264-.238 5.782.329 8.257 1.126 1.9.612 3.112 1.482 3.112 1.482l-3.306 6.146s-1.606-.434-3.22-.964c-2.24-.735-4.31-.946-5.319-.459-.544.263-.61.814-.61 1.404 0 .883.801 1.4 3.426 2.209 7.4 2.279 10.156 5.428 9.553 11.39-.286 2.839-1.467 4.25-3.132 5.655-3.332 2.813-10.085 3.488-15.51 2.087zm99.822.016c-4.177-.967-7.818-3.098-9.498-5.557-1.567-2.296-2.88-5.615-2.88-8.25 0-2.44.111-5.392 1.593-8.121 1.435-2.643 4.206-5.084 6.315-6.133 9.336-4.641 21.645-1.304 25.343 6.871.65 1.438 1.32 3.275 1.419 5.503.097 2.186-.364 4.765-.87 6.122-2.82 7.54-12.158 11.71-21.422 9.565zm5.893-7.97c1.479-.136 3.114-.788 3.986-1.994 1.478-2.045 1.637-5.509 1.105-7.497-.236-.878-1.162-2.466-2.421-3.246-1.114-.69-2.519-.63-3.497-.63-1.068 0-2.065.085-3.192.834-1.284.853-2.108 1.62-2.507 2.763-.936 2.683-.592 6.968 1.73 8.388 2.15 1.316 3.14 1.535 4.796 1.382zM67.252.897h10.28v48.437h-10.28zm116.174 33.746c-.094-7.926.04-14.506.04-14.506l9.83.045v3.588l2.067-1.742c1.028-.866 2.833-1.896 4.013-2.287 1.29-.427 3.86-.372 5.891.212 1.758.504 3.506 1.936 3.506 1.936s-1.353 2.318-2.046 3.467c-.78 1.29-2.377 3.846-2.377 3.846s-1.693-.68-3.5-.932c-1.154-.161-2.447-.008-3.074.15-.785.198-2.026 1.237-2.759 2.31-1.219 1.786-1.332 3.149-1.304 10.641l.03 7.963h-10.28zM81.05 6.745 81.107 0l40.766.017L162.903 0v13.006H81.106zM43.562 0h19.22v13.006h-19.22z"/><text xml:space="preserve" style="font-style:normal;font-variant:normal;font-weight:400;font-stretch:normal;font-size:8.43097px;line-height:1.25;font-family:Calibri;-inkscape-font-specification:Calibri;letter-spacing:0;word-spacing:0;fill:#3eb661;fill-opacity:1;stroke:none;stroke-width:.486401" x="182.149" y="58.746" transform="scale(.9194 1.08767)"><tspan x="182.149" y="58.746" style="font-style:normal;font-variant:normal;font-weight:700;font-stretch:normal;font-size:8.43097px;font-family:Calibri;-inkscape-font-specification:'Calibri Bold';fill:#3eb661;fill-opacity:1;stroke-width:.486401">INTERNATIONAL</tspan></text></g></g><g style="display:inline"><g style="fill:#187aba;fill-opacity:1" mask="url(#b)"><path style="fill:#187aba;fill-opacity:1;stroke-width:.596969" d="M145.413 42.473c0-11.84.149-21.92.149-21.92l10.135.13.062 1.763s-.218.312 2.188-1.285c.843-.56 1.557-.822 2.242-1.078 1.127-.422 2.277-.627 4.549-.62 6.482.022 10.202 2.308 12.915 7.94 1.913 3.97 1.903 11.09-.022 15.087-2.781 5.776-9.138 8.49-15.422 7.223-1.817-.366-3.916-1.069-4.665-1.561-.75-.493-1.681-.896-1.681-.896L155.723 64h-10.31zm19.242-1.845c3.581-1.638 4.615-7.734 1.765-10.409-.901-.845-2.252-1.695-3.001-1.888-3.946-1.015-7.875 1.926-7.875 5.896 0 2.973.781 4.424 3.167 5.883 2.146 1.314 3.874 1.464 5.944.518zM5.595 49.03C3.585 48.347 0 45.97 0 45.97l3.894-6.441s1.715 1.154 3.429 1.9c1.664.725 3.318 1.044 4 1.044.44 0 1.097-.073 1.45-.314.717-.491.912-1.434.623-2.152-.183-.453-2.4-1.809-4.927-3.014-5.312-2.531-6.681-4.288-6.681-8.573 0-6.997 7.957-10.777 17.79-8.449 2.082.493 4.124 1.236 4.124 1.236l-2.607 6.8s-1.644-.263-3.522-.811c-2.608-.76-4.253-1.112-5.336-.616-1.289.589-1.13 1.668-.603 2.323.545.678 1.916 1.092 4.457 1.914 6.122 1.98 8.345 4.56 8.34 9.682-.002 3.804-1.688 6.517-4.947 7.964-1.737.77-3.967 1.576-6.391 1.74-2.318.157-5.102-.357-7.497-1.172zm33.286.728c-3.848-.934-8.053-3.586-10.06-7.7-1.387-2.846-1.664-4.16-1.609-7.64.085-5.295 2.501-9.135 5.661-11.548.806-.615.563-.482 1.467-.998 3.936-2.246 9.179-3.3 13.946-.989 1.906.925 2.428 1.092 2.428 1.092v-1.794h9.833v29.152l-4.48-.007c-3.462-.004-5.353.007-5.353.007V47.09s-1.65 1.63-2.691 2.074c-1.959.834-4.395 1.034-6.314.946-.685-.031-1.264.027-2.828-.352zm8.37-9.13c3.497-1.6 4.567-7.487 1.888-10.388-3.357-3.634-9.76-2.319-10.978 2.495-.084.331-.305 1.808-.116 3.197.143 1.043.782 2.43 1.495 3.227 1.883 2.107 5.785 2.35 7.712 1.468zm46.765 9.004c-4.49-1.13-9.21-5.167-10.97-9.383-1.176-2.815-.998-8.952.346-11.92.508-1.124 1.56-2.802 2.468-3.864 1.414-1.654 2.905-2.583 4.725-3.51 4.594-2.342 12.974-2 16.353.666.443.35 1.986 1.414 3.187 2.748 1.07 1.19 1.807 2.618 2.208 3.564.443 1.048.882 3.336.974 5.083l.168 3.177-6.23.111c-3.427.061-8.161.128-10.52.15l-4.29.038.24 1.24c.207 1.074 1.2 2.286 2.481 3.083 1.477.919 3.586 1.115 5.076.832 1.086-.207 2.775-1.019 3.754-1.805l1.78-1.43 3.69 1.957c1.846.98 3.199 2.06 3.199 2.06s-2.092 3.486-5.383 5.327c-3.664 2.048-9.366 2.856-13.256 1.876zm9.813-19.21s-.334-1.592-1.08-2.362c-1.14-1.177-3.006-1.711-4.24-1.72-1.132-.008-2.71.402-3.817 1.244-.409.31-1.1 1.049-1.403 1.615-.339.635-.265 1.384-.265 1.384l5.226-.07zm18.044 19.02c-3.192-.824-6.256-3.316-6.256-3.316s.88-1.68 1.834-3.123a180.2 180.2 0 0 0 2.243-3.52s1.108.54 3.004 1.491c2.748 1.38 4.541 1.62 5.782 1.182 1.056-.373 1.346-1.058 1.373-1.622.04-.831-1.187-1.668-3.237-2.51-7.052-2.894-8.617-4.601-8.617-9.403 0-5.625 3.282-8.485 10.622-9.254 2.264-.238 5.782.329 8.257 1.126 1.9.612 3.112 1.482 3.112 1.482l-3.306 6.146s-1.606-.434-3.22-.964c-2.24-.735-4.31-.946-5.319-.459-.544.263-.61.814-.61 1.404 0 .883.801 1.4 3.426 2.209 7.4 2.279 10.156 5.428 9.553 11.39-.286 2.839-1.467 4.25-3.132 5.655-3.332 2.813-10.085 3.488-15.51 2.087zm99.822.016c-4.177-.967-7.818-3.098-9.498-5.557-1.567-2.296-2.88-5.615-2.88-8.25 0-2.44.111-5.392 1.593-8.121 1.435-2.643 4.206-5.084 6.315-6.133 9.336-4.641 21.645-1.304 25.343 6.871.65 1.438 1.32 3.275 1.419 5.503.097 2.186-.364 4.765-.87 6.122-2.82 7.54-12.158 11.71-21.422 9.565zm5.893-7.97c1.479-.136 3.114-.788 3.986-1.994 1.478-2.045 1.637-5.509 1.105-7.497-.236-.878-1.162-2.466-2.421-3.246-1.114-.69-2.519-.63-3.497-.63-1.068 0-2.065.085-3.192.834-1.284.853-2.108 1.62-2.507 2.763-.936 2.683-.592 6.968 1.73 8.388 2.15 1.316 3.14 1.535 4.796 1.382zM67.252.897h10.28v48.437h-10.28zm116.174 33.746c-.094-7.926.04-14.506.04-14.506l9.83.045v3.588l2.067-1.742c1.028-.866 2.833-1.896 4.013-2.287 1.29-.427 3.86-.372 5.891.212 1.758.504 3.506 1.936 3.506 1.936s-1.353 2.318-2.046 3.467c-.78 1.29-2.377 3.846-2.377 3.846s-1.693-.68-3.5-.932c-1.154-.161-2.447-.008-3.074.15-.785.198-2.026 1.237-2.759 2.31-1.219 1.786-1.332 3.149-1.304 10.641l.03 7.963h-10.28zM81.05 6.745 81.107 0l40.766.017L162.903 0v13.006H81.106zM43.562 0h19.22v13.006h-19.22z"/><text xml:space="preserve" style="font-style:normal;font-variant:normal;font-weight:400;font-stretch:normal;font-size:8.43097px;line-height:1.25;font-family:Calibri;-inkscape-font-specification:Calibri;letter-spacing:0;word-spacing:0;fill:#187aba;fill-opacity:1;stroke:none;stroke-width:.486401" x="182.149" y="58.746" transform="scale(.9194 1.08767)"><tspan x="182.149" y="58.746" style="font-style:normal;font-variant:normal;font-weight:700;font-stretch:normal;font-size:8.43097px;font-family:Calibri;-inkscape-font-specification:'Calibri Bold';fill:#187aba;fill-opacity:1;stroke-width:.486401">INTERNATIONAL</tspan></text></g></g></svg>